<?xml version="1.0" standalone="no"?>
<!DOCTYPE svg PUBLIC "-//W3C//DTD SVG 1.1//EN" "http://www.w3.org/Graphics/SVG/1.1/DTD/svg11.dtd" >
<svg xmlns="http://www.w3.org/2000/svg">
<metadata></metadata>
<defs>
<font id="stencilia-aregular" horiz-adv-x="1562" >
<font-face units-per-em="2048" ascent="1638" descent="-410" />
<missing-glyph horiz-adv-x="567" />
<glyph horiz-adv-x="2048" />
<glyph horiz-adv-x="2048" />
<glyph horiz-adv-x="682" />
<glyph d="M88 633q0 -139 53.5 -261t144.5 -213t214 -144.5t262 -53.5q137 0 259 53.5t213 144.5t144.5 213t53.5 261q0 137 -53.5 260t-143.5 214t-213 144.5t-260 53.5q-139 0 -262 -53.5t-215 -144.5t-144.5 -214t-52.5 -260zM166 633q0 123 46 230.5t127 188.5t189.5 128 t231.5 47v2q59 0 113.5 -11.5t107.5 -31.5h-143v-674q0 -23 2 -41t-1 -32.5t-13.5 -23.5t-32.5 -12v-180h36q10 0 23 4q111 27 155 91.5t44 183.5v649q113 -61 192 -170h-127v-178h207v20q16 -47 24.5 -94t8.5 -96q0 -123 -47 -230.5t-128 -188.5t-188.5 -128t-230.5 -47 t-231.5 47t-189.5 127t-128 188.5t-47 231.5zM422 537q0 -76 13.5 -133.5t44 -97.5t81.5 -61.5t129 -23.5v182q-53 10 -59 39t-4 82v43t2 43h-207v-73zM545 801h194v180h-194v-180zM647 858l17 16l16 17l14 -17l19 -16l-19 -14l-14 -19l-16 19zM1221 858l16 16l16 17l15 -17 l18 -16l-18 -14l-15 -19l-16 19z" />
<glyph d="M88 633q0 -139 53.5 -261t144.5 -213t214 -144.5t262 -53.5q137 0 259 53.5t213 144.5t144.5 213t53.5 261q0 137 -53.5 260t-143.5 214t-213 144.5t-260 53.5q-139 0 -262 -53.5t-215 -144.5t-144.5 -214t-52.5 -260zM166 633q0 131 52 244.5t142 195.5v-158h195v179 h-170q76 63 171 98t204 35v2q106 0 202.5 -36t174.5 -99h-205v-179h207v175q100 -82 158.5 -201t58.5 -256q0 -123 -47 -230.5t-128 -188.5t-188.5 -128t-230.5 -47t-231.5 47t-189.5 127t-128 188.5t-47 231.5zM442 961l17 16l16 16l14 -16l19 -16l-19 -15l-14 -18l-16 18z M643 145h215v949h-215v-949zM1016 961l16 16l17 16l14 -16l18 -16l-18 -15l-14 -18l-17 18z" />
<glyph d="M88 633q0 -139 53.5 -261t144.5 -213t214 -144.5t262 -53.5q137 0 259 53.5t213 144.5t144.5 213t53.5 261q0 137 -53.5 260t-143.5 214t-213 144.5t-260 53.5q-139 0 -262 -53.5t-215 -144.5t-144.5 -214t-52.5 -260zM166 633q0 111 38 209t104.5 176t156.5 130t197 71 v-1069h198v1071q104 -18 194.5 -71.5t158 -131.5t105.5 -176t38 -209q0 -123 -47 -230.5t-128 -188.5t-188.5 -128t-230.5 -47t-231.5 47t-189.5 127t-128 188.5t-47 231.5zM420 795h207v168h-207v-168zM518 844l14 12l15 16l12 -16l16 -12l-16 -15l-12 -14l-15 14zM895 795 h205v168h-205v-168zM1026 844l14 12l15 16l14 -16l14 -12l-14 -15l-14 -14l-15 14z" />
<glyph unicode="&#xa;" d="M88 633q0 -139 53.5 -261t144.5 -213t214 -144.5t262 -53.5q137 0 259 53.5t213 144.5t144.5 213t53.5 261q0 137 -53.5 260t-143.5 214t-213 144.5t-260 53.5q-139 0 -262 -53.5t-215 -144.5t-144.5 -214t-52.5 -260zM166 633q0 84 21.5 159.5t60.5 143.5 q-4 -25 -6 -50.5t-2 -47.5q0 -55 9 -105.5t31.5 -88.5t62.5 -64.5t101 -36.5l2 119q-4 2 -12 3t-12 5q-18 14 -28.5 36.5t-15.5 49t-6 52.5t-1 46t2 49t9 56.5t21.5 48t40.5 26.5h2v103q68 43 147 66.5t167 23.5v2q123 0 230.5 -47t189.5 -128t129 -189.5t47 -231.5 q0 -25 -2 -49.5t-6 -46.5q-2 45 -11.5 93t-31 89t-57.5 67.5t-89 26.5h-16v-117q27 -4 42 -25.5t22 -49t8.5 -57t1.5 -50.5q0 -25 -1.5 -53.5t-8.5 -55t-22.5 -48t-41.5 -31.5v-121q10 2 19 4t20 6q-82 -82 -189.5 -129t-230.5 -47q-111 0 -215 41h350v67h-354v-67 q-84 33 -152.5 88t-119 128t-78 158t-27.5 179zM438 764q0 -14 10.5 -24.5t24.5 -10.5t24.5 10.5t10.5 24.5h-2q0 14 -9.5 24.5t-23.5 10.5t-24.5 -10.5t-10.5 -24.5zM477 662h2v-119q66 12 107 43.5t62.5 76t27.5 98.5t6 113q0 51 -10 99.5t-33 87.5t-62.5 63.5t-97.5 28.5 v-119q27 -8 41.5 -29.5t21.5 -48t8 -54.5t1 -50q0 -18 -2 -49t-10.5 -60.5t-22.5 -53t-39 -27.5zM545 215h117l378 924h-116zM905 506q0 -57 8.5 -107.5t31 -90.5t62.5 -66.5t103 -36.5l-2 117q-25 10 -39 31.5t-21.5 47t-9.5 53t-2 52.5t1 53.5t8.5 54t21.5 47t41 33.5v119 q-61 -4 -101 -33.5t-62.5 -72.5t-31 -96.5t-8.5 -104.5zM1112 434q0 -14 10.5 -24.5t24.5 -10.5t24.5 10.5t10.5 24.5h-2q0 14 -9.5 24.5t-23.5 10.5t-24.5 -10t-10.5 -25z" />
<glyph d="M88 633q0 -139 53.5 -261t144.5 -213t214 -144.5t262 -53.5q137 0 259 53.5t213 144.5t144.5 213t53.5 261q0 137 -53.5 260t-143.5 214t-213 144.5t-260 53.5q-139 0 -262 -53.5t-215 -144.5t-144.5 -214t-52.5 -260zM166 633q0 123 46 230.5t127 188.5t189.5 128 t231.5 47v2q123 0 230.5 -47t189.5 -128t129 -189.5t47 -231.5t-47 -230.5t-128 -188.5t-188.5 -128t-230.5 -47t-231.5 47t-189.5 127t-128 188.5t-47 231.5zM369 506q0 -129 71.5 -202t190.5 -85v166q-78 27 -78 121q0 43 27.5 80t66.5 53l160 -217q-31 -14 -43 -24.5 t-45 -14.5v-164q63 10 103 29.5t91 58.5q47 -35 86 -55.5t99 -20.5h28t31 2v164q-35 -4 -67.5 7.5t-59.5 33.5q33 57 65.5 126t34.5 136h-174q-4 -39 -13 -74.5t-25 -70.5l-113 154q72 41 121 94t49 143q0 96 -47 147.5t-133 67.5l-2 -155q20 -8 19 -24.5t-1 -37.5 q0 -39 -28.5 -66.5t-63.5 -37.5q-16 25 -27.5 50t-11.5 54v39q0 16 25 23v157q-92 -10 -142.5 -68.5t-50.5 -154.5v-2q0 -47 15.5 -86t35.5 -80q-82 -47 -138 -106.5t-56 -159.5z" />
<glyph horiz-adv-x="483" d="M-111 1530l179 -309h288l195 307h-232l-102 -170l-100 172h-228z" />
<glyph unicode="&#xd;" horiz-adv-x="618" d="M131 0h311v1100h-311v-1100z" />
<glyph d="M88 633q0 -139 53.5 -261t144.5 -213t214 -144.5t262 -53.5q137 0 259 53.5t213 144.5t144.5 213t53.5 261q0 137 -53.5 260t-143.5 214t-213 144.5t-260 53.5q-139 0 -262 -53.5t-215 -144.5t-144.5 -214t-52.5 -260zM166 633q0 100 31 192v-106h194v180h-164 q43 84 108.5 150.5t149.5 111.5v-917h215v948h-143q98 35 203 35v2q123 0 230.5 -47t189.5 -128t129 -189.5t47 -231.5t-47 -230.5t-128 -188.5t-188.5 -128t-230.5 -47t-231.5 47t-189.5 127t-128 188.5t-47 231.5zM238 776l16 17l16 16l15 -16l18 -17l-18 -14l-15 -19 l-16 19zM768 721h207v178h-207v-178zM801 244h348v178h-348v-178zM811 776l16 17l17 16l14 -16l19 -17l-19 -14l-14 -19l-17 19z" />
<glyph d="M88 633q0 -139 53.5 -261t144.5 -213t214 -144.5t262 -53.5q137 0 259 53.5t213 144.5t144.5 213t53.5 261q0 166 -74 306t-197 232q-86 63 -186.5 98.5t-212.5 35.5q-139 0 -262 -53.5t-215 -144.5t-144.5 -214t-52.5 -260zM166 633q0 131 52 244.5t144 195.5v-850h211 v946h-67q119 57 254 58v2q133 0 254 -58h-107l-229 -321v-236l262 -391h250q-82 -86 -191.5 -135t-236.5 -49q-123 0 -231.5 47t-189.5 127t-128 188.5t-47 231.5zM819 739l295 371q111 -82 176.5 -206t65.5 -271q0 -117 -43 -219.5t-115 -182.5z" />
<glyph d="M88 633q0 -139 53.5 -261t144.5 -213t214 -144.5t262 -53.5q137 0 259 53.5t213 144.5t144.5 213t53.5 261q0 137 -53.5 260t-143.5 214t-213 144.5t-260 53.5q-139 0 -262 -53.5t-215 -144.5t-144.5 -214t-52.5 -260zM166 633q0 172 88 312t231 216v-917h215v948h-143 q98 35 203 35v2q123 0 230.5 -47t189.5 -128t129 -189.5t47 -231.5t-47 -230.5t-128 -188.5t-188.5 -128t-230.5 -47t-231.5 47t-189.5 127t-128 188.5t-47 231.5zM801 244h348v178h-348v-178z" />
<glyph d="M238 797l16 -15l16 -18l15 18l18 15l-18 16l-15 16l-16 -16zM811 797l16 -15l17 -18l14 18l19 15l-19 16l-14 16l-17 -16z" />
<glyph horiz-adv-x="1218" d="M-4 1165h293v271h-293v-271zM862 1167h314v269h-314v-269z" />
<glyph unicode=" "  horiz-adv-x="567" />
<glyph unicode="&#x09;" horiz-adv-x="567" />
<glyph unicode="&#xa0;" horiz-adv-x="567" />
<glyph unicode="!" horiz-adv-x="675" d="M158 0h301v299h-301v-299zM160 950q0 -137 17.5 -272t29.5 -270h209q16 135 36.5 269t20.5 269v488h-313v-484z" />
<glyph unicode="&#x22;" horiz-adv-x="962" d="M94 786q82 33 142.5 66t99.5 78t57.5 108.5t18.5 157.5v240h-308v-308h160q0 -76 -51 -136t-119 -87v-2v-117zM506 791q98 25 160.5 66.5t96.5 101t46 135.5t12 170v172l-309 2v-308h156q0 -78 -48.5 -136t-113.5 -91v-112z" />
<glyph unicode="#" horiz-adv-x="1198" d="M82 418h197l-60 -418h139l60 418h252l-60 -418h142l57 418h207v137h-189l56 393h188v135h-168l60 418h-142l-57 -418h-252l59 418h-141l-59 -418h-238v-137h219l-53 -391h-217v-137zM438 555l56 393h249l-55 -393h-250z" />
<glyph unicode="$" horiz-adv-x="1212" d="M33 436q18 -102 44.5 -177t72 -129t116 -88.5t174.5 -57.5v266q-49 16 -87 60t-38 100q0 8 1 16t3 18l-2 -2zM111 1010q0 -102 34.5 -170t93 -114t135.5 -74.5t163 -53.5l-2 -811h161v758q25 -8 51.5 -20.5t48 -31t36 -42t14.5 -52.5q0 -51 -5 -87t-50 -56v-268 q170 41 256 136.5t86 281.5q0 117 -35 185t-94.5 112.5t-138.5 72t-169 62.5v776h-159v-729q-59 16 -104.5 51t-45.5 102q0 47 7 79t50 42h-2v252q-80 -4 -141 -37t-104 -87t-64.5 -125.5t-21.5 -151.5zM793 1145q35 -25 57 -64t22 -82v-18l265 16q-6 90 -29 157t-63.5 115 t-103 81.5t-148.5 56.5v-262z" />
<glyph unicode="%" horiz-adv-x="1798" d="M37 940q0 -84 13 -158.5t48 -133t95.5 -99.5t152.5 -55l2 180q-8 2 -19.5 5t-17.5 7q-29 20 -44 55t-23 74t-9.5 79t-1.5 71t3.5 74.5t13.5 84.5t32.5 73t63.5 40l2 2v180q-92 -4 -152.5 -51t-96.5 -116.5t-49 -152.5t-13 -159zM395 674h2v-180q100 18 162 65t94.5 114.5 t43 150.5t10.5 171q0 76 -15.5 150t-51.5 133t-95.5 97t-147.5 44l2 -182q39 -12 60.5 -44t32 -72t12.5 -83t2 -75q0 -29 -3 -76t-15.5 -92t-34 -80t-58.5 -41zM498 -2h176l575 1399h-176zM1042 436q0 -86 13.5 -162.5t48.5 -137t94.5 -101.5t155.5 -55l-2 178 q-39 16 -60.5 48t-33 71.5t-13.5 81.5t-2 79t2 80t12.5 83t32 72t62.5 50v180q-92 -8 -152.5 -52t-95.5 -110.5t-48.5 -146.5t-13.5 -158zM1405 -18q94 18 154.5 62t94.5 106.5t47 140.5t13 164q0 68 -12 146.5t-45 146t-88.5 111.5t-141.5 44h-22v-176q39 -6 61.5 -39 t33.5 -75t13.5 -87t2.5 -75q0 -37 -2.5 -80t-12.5 -84t-32.5 -75t-63.5 -48v-182z" />
<glyph unicode="&#x26;" horiz-adv-x="1325" d="M43 410q0 -193 108.5 -304.5t290.5 -128.5l-2 250q-63 20 -90.5 65.5t-27.5 117.5q0 66 42 121t101 81l242 -327q-23 -12 -37.5 -21.5t-26.5 -17.5t-27.5 -13.5t-40.5 -9.5v-246q47 6 85 16.5t72 27t66.5 38t71.5 52.5q35 -27 66 -48.5t62.5 -37t67.5 -23.5t81 -8h45 q23 0 45 4l2 248q-109 -10 -192 61q25 43 50 91t47.5 99.5t38 103.5t15.5 104h-264q-6 -57 -19.5 -112.5t-37.5 -109.5l-172 236q55 31 101 65.5t81 76.5t55.5 95.5t20.5 120.5q0 145 -71 224t-204 102l-2 -236q31 -10 29 -35.5t-2 -58.5q0 -59 -43 -99t-97 -56 q-23 35 -40 73.5t-17 81.5q0 18 -1 33.5t1 28t10.5 20.5t26.5 12v238q-141 -14 -217 -103.5t-76 -234.5v-2q0 -72 24.5 -131.5t53.5 -120.5q-61 -35 -115.5 -74t-94.5 -87t-62.5 -107.5t-22.5 -134.5z" />
<glyph unicode="'" horiz-adv-x="575" d="M104 913l2 -110q104 31 166 75t95.5 104t45 139t11.5 179q0 39 1 76t1 74l-303 2v-303h149q-2 -37 -14 -74t-34.5 -69.5t-52.5 -56t-67 -36.5z" />
<glyph unicode="(" horiz-adv-x="692" d="M33 543q0 -256 81 -473t228 -426h274q-266 383 -266 854q-2 248 61.5 486.5t198.5 449.5h-256q-72 -104 -131 -208t-102 -212.5t-65.5 -224t-22.5 -246.5z" />
<glyph unicode=")" horiz-adv-x="727" d="M51 1438q143 -207 205.5 -418t62.5 -461q0 -242 -67.5 -474t-192.5 -439h252q150 195 236 424t86 477q0 131 -20.5 246.5t-59.5 223t-97.5 210t-131.5 209.5v2h-273z" />
<glyph unicode="*" horiz-adv-x="858" d="M51 1116l215 -76l-137 -182l137 -102l137 192l142 -192l137 104l-135 182l217 76l-55 160l-215 -74v234h-170v-240l-220 80z" />
<glyph unicode="+" horiz-adv-x="1339" d="M55 487h490v-487h209v487h485v207h-485v490h-209v-490h-490v-207z" />
<glyph unicode="," horiz-adv-x="565" d="M96 -233h2v-111q137 49 205 110.5t93.5 139.5t24.5 177t1 222h-301l-4 -305h155q-14 -82 -56 -140.5t-120 -92.5z" />
<glyph unicode="-" horiz-adv-x="862" d="M111 526h596v242h-596v-242z" />
<glyph unicode="." horiz-adv-x="567" d="M70 0h301l-4 303h-297v-303z" />
<glyph unicode="/" horiz-adv-x="958" d="M31 0h256l594 1438h-256z" />
<glyph unicode="0" horiz-adv-x="1220" d="M70 739q0 -86 4 -173t18 -170t42 -155.5t77 -128t123 -90t178 -40.5v243q-25 4 -49.5 13.5t-44.5 25.5q-43 35 -59.5 93.5t-19.5 126t2 135t5 120.5q0 61 -1 132t11.5 134.5t47 111.5t108.5 67v241q-139 -4 -225 -67.5t-134.5 -161.5t-65.5 -219t-17 -238zM686 -20 q158 23 243 93t125 173.5t46 231.5t6 263q0 123 -12.5 244t-54.5 218t-125 159.5t-226 67.5v-244q25 -6 48.5 -15.5t43.5 -25.5q37 -31 49.5 -83t11.5 -113.5t-7.5 -122t-6.5 -105.5q0 -51 4.5 -134t-4 -163t-40 -138.5t-101.5 -58.5v-247z" />
<glyph unicode="1" horiz-adv-x="1220" d="M279 950h167v271q-23 -16 -31.5 -26.5t-16 -19t-19.5 -11.5t-39 -3h-33h-14q-6 0 -14 2v-213zM604 0h293v1401h-254q-4 -31 -13 -60.5t-26 -58.5v-2v-1280z" />
<glyph unicode="2" horiz-adv-x="1220" d="M106 0h963v254h-963v-254zM106 893l287 -10q0 49 -3 95t4 83t34 61.5t84 34.5v264q-113 -14 -186.5 -51t-118.5 -98.5t-66.5 -146.5t-29.5 -195q-2 -10 -2 -19q0 -8 -3 -18zM229 408l387 2q82 68 160 124t136.5 120.5t94 146t35.5 198.5q0 199 -90 302.5t-280 117.5v-264 q35 -6 53 -22.5t26.5 -40t9.5 -53t1 -64.5q0 -90 -58.5 -170t-142.5 -150.5t-175 -132t-157 -114.5z" />
<glyph unicode="3" horiz-adv-x="1220" d="M90 487q0 -111 22.5 -202.5t73 -159.5t129 -107t193.5 -41v242q-61 6 -91 30.5t-41 63.5t-11 86v101zM119 965l2 -9l270 -14q0 47 -1 87t7.5 72t32 53.5t74.5 33.5v235q-109 -12 -182.5 -43.5t-118.5 -86t-64.5 -135.5t-19.5 -193zM475 618q41 8 92 9q41 0 81 -12.5 t71 -35t50 -56.5t19 -79q0 -43 -3 -80.5t-17 -68.5t-40 -50.5t-71 -25.5l2 -239q195 10 309.5 126.5t114.5 323.5q0 47 -16 103.5t-46 105.5t-74 82t-99 33q92 53 135 119.5t43 175.5q0 94 -25.5 161.5t-72.5 111.5t-115 67.5t-154 31.5v-235q66 -14 78.5 -54t12.5 -110 q0 -45 -25 -77t-62.5 -52.5t-82.5 -29.5t-84 -9h-11q0 2 -10 4v-240z" />
<glyph unicode="4" horiz-adv-x="1220" d="M68 301h419v238h-172l172 305v395l-419 -647v-291zM641 0h279v299l186 4v236h-186v858h-279v-1397z" />
<glyph unicode="5" horiz-adv-x="1220" d="M76 418q8 -92 38.5 -172t83 -138.5t125 -92t169.5 -33.5h26v239q-51 4 -79.5 19.5t-44 42t-22.5 63.5t-14 86h2l-2 2v-2zM131 627h264q20 51 45 70.5t74 29.5l2 227q-20 -4 -32.5 -9t-21.5 -13t-18.5 -17.5t-27.5 -19.5l41 111h-248zM217 1141h813l27 258h-795zM674 -16 q225 35 325.5 161.5t100.5 362.5q0 90 -22.5 173t-68.5 145.5t-116 100.5t-164 38h-29q-12 0 -26 -2v-238q45 -12 73.5 -31.5t43 -47.5t19.5 -66.5t5 -87.5q0 -53 -4 -94.5t-18.5 -73t-43 -55t-75.5 -42.5v-243z" />
<glyph unicode="6" horiz-adv-x="1220" d="M84 692q0 -113 7 -228.5t43 -213.5t108.5 -169t203.5 -91q16 -4 36 -5t40 -3v241q-47 8 -75.5 29.5t-44 53.5t-21.5 72t-6 87q0 111 56 184.5t175 75.5q55 0 96 -19.5t69 -53.5t41 -79t13 -96q0 -47 -5 -89t-20.5 -75.5t-44 -57.5t-75.5 -32l-2 -243q223 27 318.5 161 t95.5 359q0 96 -31 181t-87 147.5t-136 99.5t-181 37q-98 0 -169.5 -36t-137.5 -108q6 57 10.5 115.5t18.5 109t47 87t98 53.5v231q-145 -20 -232 -87.5t-133 -166t-60.5 -220.5t-14.5 -251zM678 1192q41 -6 62.5 -15.5t32.5 -25.5t15.5 -43t10.5 -70l268 13 q-23 168 -109 269t-256 101h-24v-229z" />
<glyph unicode="7" horiz-adv-x="1220" d="M125 1137h926v258h-926v-258zM297 2l313 -2q0 276 97 527t290 456l-292 -2q-49 -57 -95 -129q-78 -121 -131 -216t-89 -188.5t-58.5 -199t-34.5 -246.5z" />
<glyph unicode="8" horiz-adv-x="1220" d="M80 426q0 -217 113.5 -329.5t318.5 -116.5v235q-164 14 -164 203q0 104 65.5 161.5t168.5 57.5q109 0 176 -53.5t67 -167.5q0 -88 -57 -139.5t-137 -61.5v-238q100 10 185 40t146.5 84.5t96.5 135t35 193.5q2 117 -44 188.5t-143 135.5q37 14 65.5 44.5t48 70.5t29 83 t9.5 80q0 100 -34 171t-92.5 117t-136 70.5t-167.5 32.5v-231q72 -12 115.5 -47t43.5 -121q0 -49 -16 -85t-46 -57.5t-70 -31.5t-85 -10q-78 0 -131 47t-53 129q0 78 26.5 120t96.5 56v231q-84 -6 -154.5 -32.5t-122 -74.5t-81 -118t-29.5 -162v-2q0 -94 35 -162.5 t112 -121.5q-47 -33 -82.5 -65t-59.5 -69.5t-36 -83t-12 -106.5z" />
<glyph unicode="9" horiz-adv-x="1220" d="M84 889q0 -98 30.5 -180t87 -142.5t136.5 -94.5t180 -34q188 0 305 142q-4 -49 -9 -109.5t-21.5 -116t-49 -94.5t-94.5 -43v-233q147 14 234.5 83.5t133.5 173t60.5 229.5t14.5 253q0 119 -17.5 231.5t-65.5 205.5t-133 159.5t-221 93.5h-4v2q4 2 6 2t-6 2v-4q-2 0 0 -2 v-235q51 -10 82 -33t45.5 -55.5t18.5 -75.5t4 -94q0 -104 -64.5 -174t-171.5 -70q-49 0 -89 18.5t-67.5 51t-43 74.5t-15.5 91q0 57 3 99.5t16.5 73t42 53t82.5 43.5v239q-119 -4 -198 -45t-126 -112.5t-66.5 -167t-19.5 -205.5zM106 346q25 -98 49.5 -165.5t66.5 -109.5 t106 -63.5t166 -27.5v231q-37 2 -59.5 12t-35 27.5t-17.5 45.5t-7 69z" />
<glyph unicode=":" horiz-adv-x="665" d="M158 0h303v301h-303v-301zM158 705h305v296h-305v-296z" />
<glyph unicode=";" horiz-adv-x="667" d="M152 -233v-107q74 25 132 56.5t98 76.5t61.5 105.5t21.5 144.5l2 254h-301v-297h151q0 -84 -44 -143.5t-119 -89.5h-2zM166 702h305v297h-305v-297z" />
<glyph unicode="&#x3c;" horiz-adv-x="1251" d="M88 451l1030 -467v137l-862 393l862 391v137l-1030 -467v-124z" />
<glyph unicode="=" horiz-adv-x="1421" d="M12 297h1352v209h-1352v-209zM12 678h1352v209h-1352v-209z" />
<glyph unicode="&#x3e;" horiz-adv-x="1234" d="M80 -16l1030 467v124l-1030 467v-137l862 -391l-862 -393v-137z" />
<glyph unicode="?" horiz-adv-x="1122" d="M23 977h290q6 53 10.5 97t19.5 75t46 48.5t90 21.5v247q-233 -12 -343.5 -127.5t-112.5 -361.5zM422 0h301v299h-301v-299zM428 422h281q2 72 27.5 121t64.5 88t83 74.5t82 79.5t62.5 103.5t24.5 145.5q0 217 -109.5 320.5t-310.5 113.5l2 -249q76 -16 97.5 -58.5 t21.5 -126.5q0 -57 -23.5 -95t-59.5 -69.5t-78 -63.5t-78 -77t-60.5 -108.5t-24.5 -157.5l-2 2v-43z" />
<glyph unicode="@" horiz-adv-x="1925" d="M246 414q0 -162 61.5 -302.5t166 -245t245.5 -163.5t303 -59q0 2 -1 22.5t0 43t2 42t3 19.5q-133 0 -247.5 49t-199.5 134t-134.5 200.5t-49.5 248.5t45 251t127 207t196 140.5t251 51.5q115 0 218 -37t180 -104.5t122 -165t45 -218.5q0 -55 -19.5 -130.5t-57.5 -143.5 t-91 -116t-121 -48q-29 0 -36 18.5t-7 41.5t11.5 71.5t29 112t38 135.5t40.5 137.5t37.5 120.5t26.5 86l-138 -2l-41 -125q-31 72 -91 115t-140 43q-109 0 -196 -50.5t-148.5 -131t-94 -180t-32.5 -197.5q0 -66 21.5 -124.5t61.5 -103.5t94 -71.5t122 -26.5q72 0 134 37 t110 88l4 2q0 -55 37.5 -91t93.5 -36q104 0 193 56.5t154.5 142.5t101.5 189.5t36 199.5q0 141 -58.5 259t-156.5 201t-224 128t-261 45q-158 0 -297.5 -60.5t-243.5 -165t-164.5 -244t-60.5 -296.5zM715 299q0 61 21.5 131t61.5 129t97 98t127 39l-2 -2q37 0 66.5 -16 t52 -43t35 -60.5t12.5 -66.5q0 -57 -22.5 -127t-62.5 -131.5t-95.5 -103.5t-122.5 -42q-82 0 -125 58.5t-43 136.5z" />
<glyph unicode="A" horiz-adv-x="1390" d="M-10 0h364l269 915q16 51 26 101.5t21 101.5q16 -143 62 -278t87 -273l-160 -2l-77 -258h319l94 -307h361l-504 1434h-369z" />
<glyph unicode="B" horiz-adv-x="1402" d="M92 0h324v1436h-324v-1436zM567 1436l2 -271q23 0 29 1t9 2t9.5 2t28.5 1q41 0 87 -4t86 -20.5t65.5 -47t25.5 -81.5q0 -49 -26.5 -78t-66.5 -44t-85 -18.5t-82 -3.5q-23 0 -30 1.5t-10 3.5t-10 3t-30 1v-258q23 0 30 1t11 2t11.5 2t29.5 1q47 0 97.5 -5t91.5 -23.5 t67.5 -54.5t26.5 -95q0 -63 -28.5 -101.5t-71.5 -59t-96.5 -25.5t-102.5 -5q-23 0 -28 1t-6 2t-6 2t-26 1v-268h37h19h18h39q68 0 137.5 4t135 22.5t123 52.5t102.5 91q41 53 62.5 118.5t21.5 133.5q0 129 -61.5 212t-176.5 136q96 55 147.5 121.5t51.5 183.5 q0 127 -57.5 200t-147.5 108.5t-196.5 45t-205.5 9.5h-22t-4 -2h-4h-21z" />
<glyph unicode="C" horiz-adv-x="1462" d="M31 717q0 -156 42 -291t124 -235.5t203.5 -160t281.5 -61.5v271q-92 2 -151.5 46t-93.5 111.5t-46 149.5t-12 162q0 82 9 167t42 153.5t91.5 113.5t156.5 49l2 2v264q-162 -4 -284 -61.5t-202.5 -155.5t-121.5 -232.5t-41 -291.5zM813 238h2v-271q127 16 223.5 47 t165 89.5t113 148.5t69.5 225l-339 23q-14 -119 -65.5 -184.5t-168.5 -77.5zM813 1192q102 -10 150.5 -64.5t74.5 -156.5l326 24q-47 240 -184.5 344.5t-366.5 116.5v-264z" />
<glyph unicode="D" horiz-adv-x="1443" d="M92 0h320v1434h-320v-1434zM567 0q139 2 240.5 11t180.5 49t140.5 121t120.5 227q31 76 44.5 155.5t13.5 159.5q0 127 -32 240.5t-94.5 203.5t-158.5 154.5t-225 93.5q-29 6 -40.5 10.5t-20.5 6.5t-21.5 3t-40.5 1h-105h-2v-271q20 0 25 -1l4 -1l4 -1t25 -3 q100 -6 165.5 -41t103.5 -92t53.5 -135t15.5 -168q0 -113 -2.5 -199t-29 -144t-89 -87t-183.5 -29q-23 0 -46 1t-46 1v-266z" />
<glyph unicode="E" horiz-adv-x="1236" d="M66 0h319v1436h-319v-1436zM543 0h581v266h-581v-266zM543 627h514v258h-514v-258zM543 1169h567v267h-567v-267z" />
<glyph unicode="F" horiz-adv-x="1185" d="M43 0h322v1436h-322v-1436zM541 602h465v254h-465v-254zM541 1167h555v269h-555v-269z" />
<glyph unicode="G" horiz-adv-x="1507" d="M57 698q0 -139 29 -272t93.5 -236.5t170 -166t260.5 -62.5q20 0 40 2t38 4v273q-102 18 -159.5 58t-87 99.5t-38 138t-8.5 175.5q0 90 8.5 172t39 146.5t88 108.5t155.5 58h2v270q-10 2 -31 2q-49 0 -98 -12q-143 -31 -239.5 -100.5t-155 -169t-83 -223t-24.5 -265.5z M840 -29q51 2 94 18.5t80 43t69.5 62.5t65.5 77l16 -172h228l12 797h-543v-258h254q-18 -70 -37.5 -121t-48.5 -87t-74 -58.5t-116 -32.5v-269zM840 1196q111 -4 164 -62.5t77 -168.5l318 18q-12 80 -51 152.5t-97.5 132t-131 102.5t-152.5 68q-29 8 -41.5 13t-22.5 8 t-22.5 5t-40.5 6v-274z" />
<glyph unicode="H" horiz-adv-x="1429" d="M106 0h326v1434h-326v-1434zM586 618h364v-618h326v1434h-326v-547h-364v-269z" />
<glyph unicode="I" horiz-adv-x="624" d="M129 0h322v1434h-322v-1434z" />
<glyph unicode="J" horiz-adv-x="1107" d="M55 451q0 -115 19.5 -202t66.5 -147.5t125 -93.5t195 -35v275q-41 8 -61.5 23.5t-29 38t-7 53t1.5 69.5q0 33 1 64.5t3 64.5h-314v-110zM618 -25h54q10 0 18 2.5t19 4.5q166 39 232.5 138t66.5 277v1037h-322v-1020q0 -35 2 -62.5t-2 -49t-18.5 -35t-49.5 -19.5v-273z " />
<glyph unicode="K" horiz-adv-x="1460" d="M70 0h321v1434h-321v-1434zM547 592l399 -592h400l-584 782l551 654h-416l-350 -488v-356z" />
<glyph unicode="L" horiz-adv-x="1146" d="M49 0h326v1436h-326v-1436zM526 0h527v268h-527v-268z" />
<glyph unicode="M" horiz-adv-x="1703" d="M100 0h301v1434h-301v-1434zM535 776q0 -8 6 -31.5t14 -49t15.5 -50t9.5 -37.5l88 -608h323l88 621q2 12 9.5 36.5t15.5 50t14 49t6 31.5v646h-24q-72 -274 -144.5 -543.5t-126.5 -548.5q-59 279 -132.5 548t-147.5 544h-14v-658zM1260 0h299v1434h-299v-1434z" />
<glyph unicode="N" horiz-adv-x="1421" d="M104 0h322l-14 715l-308 518v-1233zM109 1432l856 -1432h307l-860 1432h-303zM946 1434l15 -709l309 -516v1225h-324z" />
<glyph unicode="O" horiz-adv-x="1591" d="M63 723q0 -129 28 -251t87.5 -222t153.5 -171t227 -95q33 -6 65.5 -7.5t67.5 -1.5l2 273q-98 20 -155.5 61t-88 101.5t-40 139.5t-9.5 173q0 86 10.5 166t42 144.5t89 108.5t151.5 54v2v272q-160 -4 -278.5 -63t-196.5 -159.5t-117 -235.5t-39 -289zM850 -27h37 q154 0 265.5 64.5t184 170t108.5 240t36 275.5q0 328 -151.5 523.5t-479.5 223.5v-274q102 -10 160.5 -54t88 -111.5t37 -151.5t7.5 -174q0 -94 -10.5 -170t-41 -134.5t-88 -97.5t-153.5 -57v-273z" />
<glyph unicode="P" horiz-adv-x="1310" d="M80 0h321v1434h-321v-1434zM557 498h162q121 0 210 21.5t146.5 75.5t85 144.5t27.5 225.5q0 123 -22.5 212t-72 145t-129 84t-194.5 28h-213v-263h12h119q55 0 94 -18t60.5 -64.5t21.5 -136.5q0 -66 -12 -104.5t-38 -59t-64.5 -25.5t-90.5 -5h-102v-260z" />
<glyph unicode="Q" horiz-adv-x="1607" d="M61 715q0 -160 46.5 -296t134.5 -235.5t218 -157t296 -57.5q39 0 86 4t93 12.5t89 23t78 34.5l-252 211q-47 -10 -86 -10q-102 0 -172 44t-113 113.5t-61.5 156.5t-18.5 173t20.5 169t66.5 148.5t116 105.5t168 40q102 0 173 -43t115 -112.5t63.5 -155.5t19.5 -174 q0 -47 -5.5 -94.5t-19.5 -94.5l-151 125l-170 -209l575 -481l172 209l-164 141q53 100 76 209t25 223q0 156 -51.5 290t-144.5 231.5t-224 152.5t-291 55q-168 0 -299 -57t-222 -157.5t-138.5 -237.5t-47.5 -299z" />
<glyph unicode="R" horiz-adv-x="1384" d="M72 0h321v1436h-321v-1436zM547 528h37h18q8 0 18.5 -2t36.5 -4q72 -8 109 -37.5t53.5 -72.5t21.5 -96.5t15 -108.5t28.5 -106.5t43.5 -100.5h340q-35 57 -58.5 113.5t-35.5 124.5q-10 53 -18.5 118.5t-26 129t-50 114.5t-92.5 76q-10 4 -20.5 8t-20.5 8q59 0 106.5 32 t81 81t51 107.5t17.5 111.5q0 111 -26.5 184.5t-71.5 119.5t-108 68q-64 20 -136 30q-65 9 -136 9h-16h-53q-53 0 -106 1v-273h8q37 0 75 2t77 2q43 0 76.5 -5t56 -21.5t34 -50t11.5 -91.5q0 -72 -9.5 -113.5t-33 -64t-61.5 -30t-95 -7.5q-35 0 -68.5 1t-68.5 1z" />
<glyph unicode="S" horiz-adv-x="1374" d="M55 453q6 -223 108.5 -342t315.5 -142q33 -4 63.5 -5t61.5 -3l-2 270q-68 6 -105.5 18.5t-58 39t-33 69.5t-28.5 111zM102 1030q0 -106 36 -177t95.5 -117t135 -73.5t154.5 -47t155 -36t135 -39t95 -58.5t36 -95q0 -43 -15.5 -71.5t-42 -46t-59 -25.5t-67.5 -11v-268 q29 2 50 4t40.5 5t40 8.5t49.5 13.5q68 18 129 56t106.5 90.5t72 117.5t26.5 139q0 119 -36 199t-95.5 132t-135 82t-154.5 49.5t-154.5 32.5t-135 33.5t-96.5 52.5t-37 87q0 43 14.5 70.5t39 43t55 20.5t65.5 5v258h-12q-104 0 -194.5 -23.5t-156 -74.5t-102.5 -134 t-37 -202zM760 1202q55 -6 86 -19.5t48 -38t24.5 -63.5t13.5 -94l319 25q-6 29 -9 59.5t-11 58.5q-43 162 -162 242t-281 90l-28 2v-262z" />
<glyph unicode="T" horiz-adv-x="1218" d="M-4 1165h293v271h-293v-271zM422 0h326v1436h-326v-1436zM862 1167h314v269h-314v-269z" />
<glyph unicode="U" horiz-adv-x="1390" d="M98 522q0 -145 24.5 -249.5t82 -172t154 -100.5t241.5 -35l-2 275q-68 8 -103.5 30.5t-52 57t-18.5 84t-2 112.5v906h-324v-908zM752 -31q154 6 250 40t151 102.5t75.5 175t20.5 258.5v885h-325v-867q0 -61 2 -117v-15q0 -48 -12 -86q-14 -44 -50.5 -70.5t-111.5 -28.5 v-2v-275z" />
<glyph unicode="V" horiz-adv-x="1345" d="M-2 1434l502 -1434h303l-453 1434h-352zM745 655l148 -471l410 1250h-347z" />
<glyph unicode="W" horiz-adv-x="1843" d="M-10 1434l403 -1434h295l-377 1434h-321zM635 750l143 -549l123 747l209 -948h293l-350 1434h-308zM1356 772l137 -573l315 1235h-317z" />
<glyph unicode="X" horiz-adv-x="1380" d="M8 0h367l203 373l-185 282zM47 1434l918 -1434h362l-915 1434h-365zM764 1141l178 -285l350 576h-364z" />
<glyph unicode="Y" horiz-adv-x="1318" d="M-8 1434l479 -895v-539h326v532l-445 902h-360zM727 977l162 -326l393 783h-358z" />
<glyph unicode="Z" horiz-adv-x="1327" d="M35 0h196l1004 1184v250h-184l-1016 -1194v-240zM78 1163h569l230 271h-799v-271zM406 0h841v264h-620z" />
<glyph unicode="[" horiz-adv-x="811" d="M82 -352h299v1786h-299v-1786zM436 1194h248v240h-248v-240zM438 -113v-239h246v239h-246z" />
<glyph unicode="\" horiz-adv-x="696" d="M10 1495l498 -1534h135l-498 1534h-135z" />
<glyph unicode="]" horiz-adv-x="796" d="M74 -113v-241h248v241h-248zM74 1192h250v242h-250v-242zM377 -354h299v1788h-299v-1788z" />
<glyph unicode="^" horiz-adv-x="407" d="M-156 1556h238l100 138l105 -135h231l-170 253h-328z" />
<glyph unicode="_" horiz-adv-x="1097" d="M-37 -510v-102h1129v102h-1129z" />
<glyph unicode="`" horiz-adv-x="348" d="M-74 1528l248 -299h201l-99 299h-350z" />
<glyph unicode="a" horiz-adv-x="1216" d="M63 315q0 -82 30 -146.5t81 -110.5t121 -70.5t147 -24.5q40 0 60 -1h10q16 0 28 2q18 3 36 12.5t53 27.5q-10 57 -11 105q0 20 1.5 50.5t1.5 51.5v22l-21 -10q-20 -10 -80 -12q-49 0 -95 28.5t-46 84.5q0 51 22.5 78.5t56.5 42t73.5 19.5t76.5 11v215q-20 -4 -26 -4h-7 q-2 0 -7 -1l-25 -5q-86 -16 -172 -33.5t-153.5 -54.5t-111 -101.5t-43.5 -175.5zM123 743h291q2 72 55 106t119 34q78 0 126 -31t48 -117v-571q0 -88 20 -164h328q-25 78 -32 158t-7 159q0 76 3 150t3 147q0 133 -23.5 229.5t-79.5 158t-149.5 91t-230.5 29.5v2 q-72 0 -146.5 -15t-139 -50t-110.5 -90.5t-63 -134.5q-4 -23 -6 -45.5t-6 -45.5z" />
<glyph unicode="b" horiz-adv-x="1277" d="M94 0h314v1434h-314v-1434zM518 10q2 -2 20.5 -11t54.5 -20.5t73 -11.5q125 0 215 52.5t147 137.5t84 192t27 218q0 106 -28 208t-85 179.5t-145 125.5t-207 48q-57 0 -104 -10l-46 -10v-262l24 13q25 13 68 13q59 0 99.5 -29.5t63 -74.5t32.5 -99.5t10 -103.5 q0 -55 -6 -114.5t-26.5 -110.5t-60.5 -83t-107 -32q-27 0 -50.5 10.5t-36 19.5t-14.5 11h-2v-256z" />
<glyph unicode="c" horiz-adv-x="1226" d="M59 541q0 -127 26 -228.5t82 -175.5t146 -117t219 -51v267q-61 16 -91.5 47.5t-43 73.5t-12.5 94v110q0 51 1 103.5t13.5 96.5t42 75.5t88.5 40.5h2v256q-129 -8 -219 -55.5t-146 -125.5t-82 -182t-26 -229zM684 -29q109 8 181.5 39t121.5 85.5t79.5 132.5t53.5 182 l-307 12q-10 -39 -15 -71t-16.5 -55.5t-34 -39.5t-63.5 -23v-262zM684 879q41 -8 61.5 -21.5t31.5 -34t15.5 -50.5t12.5 -68l307 14q-8 35 -15 67.5t-20 65.5q-53 145 -150.5 208.5t-242.5 74.5v-256z" />
<glyph unicode="d" horiz-adv-x="1236" d="M74 543q0 -111 29.5 -214.5t90 -182t151.5 -127t212 -48.5q59 0 77 7l17 6l2 241l2 2t-4 4t-30 2q-66 0 -110 29t-70.5 74t-38 100.5t-11.5 110.5q0 51 12.5 108.5t39 105.5t70.5 78.5t108 30.5q37 0 35 8l-3 7v233l-21 5q-22 5 -75 5q-123 0 -214 -50t-150.5 -133 t-89 -187.5t-29.5 -214.5zM807 2h311v1438h-311v-1438z" />
<glyph unicode="e" horiz-adv-x="1265" d="M61 539q0 -127 38 -232.5t110 -180.5t175 -116t232 -41q104 0 183.5 20.5t142 62.5t112.5 108.5t93 158.5l-316 23q-35 -57 -83 -88t-115 -31q-72 0 -121 29t-80 75t-44 106.5t-13 121.5q0 59 11 118.5t39 106.5t75 77t116 30q96 0 147.5 -52.5t70.5 -140.5h-285 q-6 -29 -11.5 -58.5t-5.5 -57.5q0 -31 3.5 -61t7.5 -58h616v47q0 129 -32.5 242.5t-99 198.5t-169 134t-242.5 49q-129 0 -231 -46t-174 -125.5t-111 -187t-39 -232.5z" />
<glyph unicode="f" horiz-adv-x="821" d="M49 860h148v-860h319v860h211v238h-211v14q0 53 33 68.5t80 15.5q25 0 48 -1t48 -1v242h-207q-90 0 -151.5 -19.5t-98.5 -60.5t-53 -104.5t-16 -149.5l-150 -2v-240z" />
<glyph unicode="g" horiz-adv-x="1271" d="M70 600q0 -104 28.5 -200.5t86 -170t142.5 -117.5t199 -44q78 0 119 10l41 10l2 277l-20 -17q-19 -16 -62 -16q-55 0 -98 22.5t-72.5 59.5t-45 85t-15.5 99t16.5 99t46 87t73.5 62.5t99 23.5q35 0 56 -13l22 -13v241l-39 21q-39 22 -110 22q-111 0 -198 -44 t-147.5 -117.5t-92 -169t-31.5 -197.5zM129 -18q2 -45 18 -88q27 -80 75 -130.5t110.5 -79t135.5 -40t148 -11.5q119 0 218.5 25t171 80t111.5 144t40 220v996h-311v-989q0 -111 -46 -170.5t-161 -59.5q-61 0 -107.5 20.5t-70.5 80.5v2h-332z" />
<glyph unicode="h" horiz-adv-x="1239" d="M102 0h308v1434h-308v-1434zM545 1053l2 -244q2 2 12 13.5t28.5 24.5t33.5 13q55 0 87.5 -18.5t49 -50t21.5 -73.5t5 -87v-631h310v713q0 88 -20.5 163.5t-64.5 131t-113 87t-163 31.5q-55 0 -100 -19.5t-65.5 -35.5t-22.5 -18z" />
<glyph unicode="i" horiz-adv-x="612" d="M129 0h311v1100h-311v-1100zM129 1155h311v279h-311v-279z" />
<glyph unicode="j" horiz-adv-x="571" d="M14 -88v-262q12 -2 25 -2h24q96 0 178.5 7t141.5 40t92 98t33 182v1125h-309v-1063q0 -70 -33 -97.5t-98 -27.5h-52h-2zM201 1153h309v281h-309v-281z" />
<glyph unicode="k" horiz-adv-x="1265" d="M68 0h311v1434h-311v-1434zM539 430l217 -430h397l-395 641l364 459h-405l-178 -316v-354z" />
<glyph unicode="l" horiz-adv-x="612" d="M129 0h309v1434h-309v-1434z" />
<glyph unicode="m" horiz-adv-x="1810" d="M88 0h315v1098h-315v-1098zM557 1042h2v-237q20 14 46 26.5t50 12.5q29 0 44.5 -18.5t21.5 -50.5t7 -75t1 -92v-608h315v627q0 41 7.5 79.5t26 68.5t49 48.5t79.5 18.5q45 0 76 -17.5t48.5 -45t24.5 -64.5t7 -76l4 -639h311v649q0 96 -12 182.5t-50 152t-107.5 104 t-184.5 38.5q-111 0 -191.5 -49t-140.5 -137q-41 92 -95 140t-155 48q-45 0 -89 -22.5t-67.5 -40.5t-27.5 -23z" />
<glyph unicode="n" horiz-adv-x="1255" d="M104 0h316v1098h-316v-1098zM580 797q2 2 20 14t41 26.5t27 14.5q41 0 64.5 -16.5t35.5 -43t15 -61.5t3 -72v-659h318v676q0 82 -19.5 160.5t-61.5 141t-107.5 100.5t-159.5 38q-55 0 -96.5 -18.5t-58.5 -34.5t-19 -19h-2v-247z" />
<glyph unicode="o" horiz-adv-x="1314" d="M66 549q0 -102 19 -197.5t64.5 -173.5t117 -131t175.5 -72q29 -4 58.5 -5t58.5 -3v254q-70 16 -105.5 47t-51 74t-16.5 97.5t-1 119.5q0 55 4 109.5t20.5 99.5t52.5 74.5t97 38.5v252q-123 -4 -216 -50.5t-154.5 -125t-92 -183t-30.5 -225.5zM713 -31q27 4 51 6t49 7 q104 20 179 74.5t123 132t69.5 174t21.5 198.5q0 252 -122.5 404.5t-370.5 167.5v-250q68 -12 102.5 -42t50 -74t17.5 -98.5t2 -115.5q0 -53 -4 -108.5t-20.5 -102.5t-51.5 -79t-96 -40v-254z" />
<glyph unicode="p" horiz-adv-x="1286" d="M98 -342h314v1446h-314v-1446zM567 25l23 -9q22 -8 54 -17t67.5 -17.5t62.5 -8.5q96 0 168 50.5t121 131.5t73.5 185t25.5 213v9q0 104 -22 204q-24 104 -73 185t-122 131.5t-171 50.5q-39 0 -87 -18.5t-77.5 -35t-34.5 -18.5h3v-246q2 2 21 15.5t52 28.5t60 15 q47 0 77.5 -47t45 -117.5t14.5 -154.5q0 -82 -16.5 -152.5t-49 -117.5t-80.5 -47q-25 0 -57.5 13t-53 25.5t-24.5 14.5v-266z" />
<glyph unicode="q" horiz-adv-x="1234" d="M74 555q0 -106 17.5 -209.5t62.5 -185.5t122.5 -133.5t200.5 -51.5q39 0 76 7.5t56.5 13.5t21.5 8v270l-21 -22q-20 -21 -67 -21q-59 0 -90 30t-45.5 76t-15.5 100.5t-1 103.5q0 57 -2 117v18q0 49 9 89q10 48 42.5 77.5t104.5 29.5q23 0 48 -13t39.5 -25.5t16.5 -14.5 v254q-4 2 -28.5 14.5t-66.5 26.5t-73 14q-121 0 -199.5 -48t-124.5 -128t-64.5 -183t-18.5 -214zM807 -344h311v1444h-311v-1444z" />
<glyph unicode="r" horiz-adv-x="784" d="M90 0h318v1100h-318v-1100zM502 1055l2 -2v-275q2 2 22.5 15.5t60.5 29t81 15.5q37 0 67 -9l2 289q-16 2 -30.5 3t-30.5 1q-45 0 -86 -17.5t-63.5 -32.5t-24.5 -17z" />
<glyph unicode="s" horiz-adv-x="1187" d="M68 375q2 -109 33.5 -181.5t86 -119.5t131.5 -71t173 -34v236q-78 14 -99.5 54t-23.5 126zM100 766q0 -96 49.5 -155.5t122 -96.5t157.5 -56.5t157.5 -38t122 -42t49.5 -64.5q0 -66 -31 -88t-84 -24l2 -232q94 2 174 21.5t136.5 64.5t88 118.5t31.5 182.5q0 102 -49 164 t-124 98.5t-162 56t-161.5 37t-125 39t-50.5 64.5q0 53 24 71.5t65 18.5v230q-88 -4 -161 -24.5t-124 -63.5t-79 -112t-28 -169zM647 901q31 4 50.5 -9t30.5 -37t15.5 -53.5t6.5 -58.5l297 17q-12 100 -42 168.5t-78 111.5t-117 64.5t-163 32.5v-2v-234z" />
<glyph unicode="t" horiz-adv-x="815" d="M47 862h152v-565q0 -160 69.5 -233.5t231.5 -73.5q55 0 110.5 3t108.5 11v244q-23 -4 -47.5 -6t-48.5 -2q-66 0 -87.5 34.5t-21.5 94.5v493h209v240h-211v233l-313 -164v-69h-152v-240z" />
<glyph unicode="u" horiz-adv-x="1251" d="M104 451q0 -86 14.5 -171t51.5 -153t102.5 -111t169.5 -43q53 0 99.5 11.5t69 21.5t24.5 12l-2 232v4v-4q-2 -4 -10.5 -11.5t-38.5 -7.5q-47 0 -79 20.5t-50.5 53.5t-26.5 73t-8 81l-2 643h-314v-651zM788 0h314v1102h-314v-1102z" />
<glyph unicode="v" horiz-adv-x="1118" d="M8 1098l383 -1098h287l-334 1098h-336zM631 647l145 -473l287 924h-334z" />
<glyph unicode="w" horiz-adv-x="1640" d="M-2 1102l321 -1102h287l-280 1102h-328zM559 662l121 -480q20 84 34.5 151.5t27 133t26.5 134.5t33 153q43 -190 89 -378t93 -378l238 2l-285 1100h-274zM1176 647l145 -551l276 1004h-323z" />
<glyph unicode="x" horiz-adv-x="1185" d="M2 0h352l748 1100h-352zM10 1100l283 -428l178 262l-96 166h-365zM657 162l123 -162h361l-303 422z" />
<glyph unicode="y" horiz-adv-x="1112" d="M2 1098q14 -43 48 -129t74 -191.5t83 -221.5t79 -217t58.5 -177t22.5 -105v-7q0 -84 -45 -110q-48 -28 -127 -28h-89v-248q37 0 74 -1t74 -1q80 0 147.5 11.5t120.5 41t91.5 82.5t56.5 137l-324 1164h-344zM608 604l133 -475l322 969h-334z" />
<glyph unicode="z" horiz-adv-x="1126" d="M55 0h170l770 854v246h-151l-789 -864v-236zM117 844h319l236 256h-555v-256zM397 0h629l2 264h-393z" />
<glyph unicode="{" horiz-adv-x="618" d="M33 598l2 -2v-121q45 0 76.5 -27.5t51 -67.5t28 -86t8.5 -83v-346q0 -45 13 -92t38.5 -85t64.5 -61.5t91 -23.5h135v131h-88q-35 0 -55.5 22.5t-30 53t-10.5 65.5t-1 59q2 49 3 98.5t1 98.5q0 53 -4 115.5t-22.5 120t-54 102.5t-99.5 63v7q41 10 74 40.5t54.5 71.5 t33.5 86t14 84q2 10 2 19v20v307q0 23 3.5 51.5t12.5 54t28.5 43t50.5 17.5h88v133l-135 -2q-74 0 -116 -36.5t-63.5 -90t-26.5 -117t-5 -118.5l2 -144q0 -43 -1 -105t-15.5 -119.5t-48.5 -96.5t-99 -39z" />
<glyph unicode="|" horiz-adv-x="536" d="M172 -39h147v1534h-147v-1534z" />
<glyph unicode="}" horiz-adv-x="745" d="M96 -266v-131h135q51 0 90 23.5t65 61.5t39 85t13 92v346q0 37 8.5 83t28 86t50 67.5t77.5 27.5v121q-59 0 -92 34t-48.5 83t-18.5 104t-3 98q0 41 2 83t2 83q0 55 -5 123t-26.5 126.5t-64.5 97t-117 38.5l-135 -2v-131h88q31 0 50.5 -17.5t28.5 -43t12.5 -54t3.5 -51.5 q0 -59 -1.5 -115.5t-1.5 -113.5v-59q0 -29 3 -58q2 -39 14 -84t34.5 -86t54.5 -71.5t75 -40.5v-4q-63 -18 -99 -63.5t-54.5 -103t-23 -121t-4.5 -118.5q0 -45 1.5 -88t1.5 -86q0 -27 -1.5 -64.5t-9.5 -72.5t-28.5 -59.5t-57.5 -24.5h-86z" />
<glyph unicode="~" horiz-adv-x="415" d="M-131 1565h154q4 16 16 28.5t31 12.5q63 0 122.5 -22.5t122.5 -22.5q51 0 87 22.5t57.5 59t32 81.5t10.5 88l-158 -2q8 -23 -16.5 -35t-40.5 -12q-63 0 -122 21.5t-122 21.5q-43 0 -76 -18.5t-54.5 -49t-32.5 -69.5t-11 -78v-2v-24z" />
<glyph unicode="&#xa1;" horiz-adv-x="565" d="M104 0h312v479q0 137 -17.5 272.5t-29.5 270.5h-209q-14 -135 -35 -270.5t-21 -274.5v-477zM117 1133h299v299h-299v-299z" />
<glyph unicode="&#xa2;" horiz-adv-x="1310" d="M59 543q0 -109 27 -204t81 -169t137 -123t196 -67v1142q-111 -18 -194 -71.5t-138 -130t-82 -174t-27 -203.5zM385 559q0 -41 4 -82t16.5 -79t35 -70.5t59.5 -55.5v574q-37 -23 -59.5 -55.5t-35 -71.5t-16.5 -80t-4 -80zM500 -20v292v-292zM500 848v274v-274zM580 -225 h147v1554h-147v-1554zM799 264l6 -280q90 14 156.5 51t114.5 92t80 127t50 156l-309 12q-10 -47 -33.5 -89t-64.5 -69zM803 -14v276v-276zM803 850v276v-276zM803 850q37 -25 56.5 -65t27.5 -80l309 14q-18 86 -48 153.5t-76 118.5t-111.5 84t-155.5 49z" />
<glyph unicode="&#xa3;" horiz-adv-x="1241" d="M43 207q0 -55 19.5 -95t53.5 -69t79 -45.5t94 -22.5v175q-20 4 -36.5 19t-16.5 38t16 36t37 17v2v170q-49 -2 -94 -17.5t-79 -44t-53.5 -69.5t-19.5 -94zM115 561h245q18 -39 35 -77t23 -78q-16 8 -36 12l-40 8v-168q18 -4 35.5 -17.5t17.5 -35.5q2 -25 -14 -39t-39 -19 v-170q57 12 103.5 32t89.5 61q66 -39 133 -67t145 -28q94 0 159.5 34t105.5 92.5t57.5 135t17.5 160.5q0 23 -1 43.5t-3 42.5l-256 2q0 -37 -1 -82t-13.5 -82.5t-40 -63.5t-78.5 -26q-35 0 -68 16.5t-57 41.5q8 35 13 69.5t5 69.5q-4 70 -28 131l188 2v191h-256 q-37 59 -71.5 124.5t-34.5 139.5q0 35 14 66.5t37.5 55t55.5 38t67 16.5l-2 238q-84 -8 -164 -33t-142.5 -71t-100.5 -114.5t-38 -167.5q0 -78 24.5 -151.5t63.5 -138.5h-151v-193zM676 1430l2 -238q57 -23 94 -51.5t56.5 -65.5t25.5 -84t6 -104l258 59q-8 102 -35.5 189.5 t-81 152t-134.5 101t-191 41.5z" />
<glyph unicode="&#xa4;" horiz-adv-x="1560" d="M10 549h135q20 -125 70.5 -230.5t130.5 -182.5t189.5 -121t248.5 -46v271q-70 2 -120 28.5t-84.5 68.5t-55 97t-30.5 115h868l12 135h-893v25v43t2 43h901l13 135h-897q12 51 32.5 98t54.5 82t81 56.5t112 25.5l2 2v264q-133 -4 -239.5 -43t-184 -108.5t-129 -166 t-75.5 -210.5h-109l-12 -135h102q-2 -18 -2 -39v-39v-33h-110zM915 238h3v-271q127 16 223 47t164.5 89.5t113.5 148.5t70 225l-340 23q-14 -119 -65.5 -184.5t-168.5 -77.5zM915 1192q102 -10 150.5 -64.5t75.5 -156.5l325 24q-47 240 -184 344.5t-367 116.5v-264z" />
<glyph unicode="&#xa5;" d="M88 633q0 -139 53.5 -261t144.5 -213t214 -144.5t262 -53.5q137 0 259 53.5t213 144.5t144.5 213t53.5 261q0 137 -53.5 260t-143.5 214t-213 144.5t-260 53.5q-139 0 -262 -53.5t-215 -144.5t-144.5 -214t-52.5 -260zM166 633q0 123 46 230.5t127 188.5t189.5 128 t231.5 47v2q123 0 230.5 -47t189.5 -128t129 -189.5t47 -231.5t-47 -230.5t-128 -188.5t-188.5 -128t-230.5 -47t-231.5 47t-189.5 127t-128 188.5t-47 231.5zM348 375h277v157h-115l115 201v260l-277 -426v-192zM725 176h184v197l123 4v155h-123v566h-184v-922z" />
<glyph unicode="&#xa6;" d="M88 633q0 -139 53.5 -261t144.5 -213t214 -144.5t262 -53.5q137 0 259 53.5t213 144.5t144.5 213t53.5 261q0 137 -53.5 260t-143.5 214t-213 144.5t-260 53.5q-139 0 -262 -53.5t-215 -144.5t-144.5 -214t-52.5 -260zM166 633q0 123 46 230.5t127 188.5t189.5 128 t231.5 47v2q123 0 230.5 -47t189.5 -128t129 -189.5t47 -231.5t-47 -230.5t-128 -188.5t-188.5 -128t-230.5 -47t-231.5 47t-189.5 127t-128 188.5t-47 231.5zM340 801h195v180h-195v-180zM442 858l17 16l16 17l14 -17l19 -16l-19 -14l-14 -19l-16 19zM635 244h211v946h-211 v-946zM911 803h207v178h-207v-178zM1016 858l16 16l17 17l14 -17l18 -16l-18 -14l-14 -19l-17 19z" />
<glyph unicode="&#xa7;" horiz-adv-x="1296" d="M68 72q0 -98 35.5 -168t96 -114t140.5 -67.5t166 -29.5v227q-172 25 -168 199l-2 12l-268 -4v-55zM74 649q0 -100 51 -168.5t129 -118t167 -85t167 -70.5t129 -74t51 -94q0 -53 -41 -82t-88 -33v-229q82 2 161 24.5t140 67.5t99 112.5t38 159.5q0 78 -31.5 138.5 t-87.5 113.5q104 35 164 105.5t60 185.5q0 94 -49.5 159.5t-124 113t-161.5 82t-161 66.5t-124 66.5t-50 84.5q0 18 12.5 31.5t30.5 22.5t38.5 13t35.5 6v219q-74 -2 -147.5 -16t-133 -50t-97.5 -94.5t-38 -146.5v-2q0 -70 31.5 -126t85.5 -97q-111 -29 -183.5 -95.5 t-72.5 -189.5zM367 694q0 31 13 49.5t33.5 30.5t46 19.5t48.5 13.5l278 -123q18 -8 38 -21.5t37.5 -30t27.5 -37t10 -40.5q0 -29 -11 -49.5t-28.5 -34.5t-40 -24.5t-45.5 -18.5l-262 127q-20 10 -46 22.5t-47.5 29t-36.5 38t-15 49.5zM745 1241q61 -6 94 -45t33 -100l273 2 q-18 102 -45 166.5t-72 104.5t-113.5 60.5t-169.5 32.5v-221z" />
<glyph unicode="&#xa8;" horiz-adv-x="579" d="M-96 1227h280v252h-280v-252zM348 1227h281v252h-281v-252z" />
<glyph unicode="&#xa9;" horiz-adv-x="1304" d="M-43 643q0 -139 53 -261t144.5 -213t213 -144.5t261.5 -53.5q139 0 262 52.5t214 143.5t143 214t52 262t-53 261t-144 213t-213 144.5t-261 53.5t-261 -53.5t-213.5 -144.5t-144.5 -213t-53 -261zM35 643q0 123 47 230.5t128 188.5t188.5 128t230.5 47t230.5 -47 t188 -127t128 -187.5t47.5 -230.5t-47.5 -231.5t-128 -189.5t-188 -128t-230.5 -47t-230.5 47t-188.5 128t-128 188.5t-47 230.5zM158 715q0 -102 27.5 -191.5t82 -156t134.5 -105.5t186 -41v180q-61 2 -99 31t-60.5 73t-31 98t-8.5 108q0 55 6 110.5t26.5 100.5t59.5 73.5 t105 32.5l2 2v174q-109 -2 -189 -40t-134 -102.5t-80.5 -153.5t-26.5 -193zM674 399h2v-178q84 10 147.5 30.5t108.5 58.5t75 97.5t46 149.5l-224 14q-10 -78 -43.5 -120.5t-111.5 -51.5zM674 1028q70 -6 101.5 -42t47.5 -103l215 16q-31 160 -121 227.5t-243 77.5v-176z " />
<glyph unicode="&#xaa;" d="M88 633q0 -139 53.5 -261t144.5 -213t214 -144.5t262 -53.5q137 0 259 53.5t213 144.5t144.5 213t53.5 261q0 137 -53.5 260t-143.5 214t-213 144.5t-260 53.5q-139 0 -262 -53.5t-215 -144.5t-144.5 -214t-52.5 -260zM166 633q0 170 85 308t226 214v-911h205v946h-129 q94 37 207 37v2q123 0 230.5 -47t189.5 -128t129 -189.5t47 -231.5t-47 -230.5t-128 -188.5t-188.5 -128t-230.5 -47t-231.5 47t-189.5 127t-128 188.5t-47 231.5zM788 528l144 -284h262l-262 424l242 301h-269l-117 -207v-234z" />
<glyph unicode="&#xab;" horiz-adv-x="948" d="M100 446l314 -264v252l-168 135l166 144v262l-312 -275v-254zM481 698l4 -247l314 -267v248l-166 139l168 152v254z" />
<glyph unicode="&#xac;" d="M88 633q0 -139 53.5 -261t144.5 -213t214 -144.5t262 -53.5q137 0 259 53.5t213 144.5t144.5 213t53.5 261q0 137 -53.5 260t-143.5 214t-213 144.5t-260 53.5q-139 0 -262 -53.5t-215 -144.5t-144.5 -214t-52.5 -260zM166 633q0 162 79 297t212 213v-899h213v948h-111 q94 35 201 35v2q123 0 237 -51q-47 10 -97 13t-97 3h-15q-2 0 -2 -2h-2h-14v-178q14 0 18.5 1t6.5 1q4 0 8 1t18 1q27 0 57.5 -3t56.5 -13.5t43 -31t17 -55.5q0 -33 -18.5 -51t-44 -27.5t-55 -12.5t-54.5 -3q-16 0 -20 1t-6 2t-7.5 2t-19.5 1v-170h18q6 0 9.5 1t7.5 2.5 t20 1.5q31 0 64 -4.5t60.5 -16.5t45 -35.5t17.5 -62.5q0 -43 -18.5 -67.5t-48.5 -38t-64.5 -16.5t-67.5 -3q-14 0 -17 1t-5 1l-3 1q-4 1 -18 1v-178q18 0 25.5 1t11.5 1q6 0 13 -1t26 -1q45 0 90 3t88 15t82 34.5t68 59.5q29 35 42 78t13 88q0 86 -41 141.5t-115 90.5 q61 35 95 79t36 121q0 51 -16 90q78 -80 123 -185t45 -226q0 -123 -47 -230.5t-128 -188.5t-188.5 -128t-230.5 -47t-231.5 47t-189.5 127t-128 188.5t-47 231.5z" />
<glyph unicode="&#xad;" horiz-adv-x="862" d="M111 526h596v242h-596v-242z" />
<glyph unicode="&#xae;" d="M88 633q0 -139 53.5 -261t144.5 -213t214 -144.5t262 -53.5q137 0 259 53.5t213 144.5t144.5 213t53.5 261q0 137 -53.5 260t-143.5 214t-213 144.5t-260 53.5q-139 0 -262 -53.5t-215 -144.5t-144.5 -214t-52.5 -260zM166 633q0 158 74.5 289t197.5 211v-889h213v948 h-94q98 35 203 35v2q125 0 233 -49q-53 10 -114 10t-125 2v-180h6q23 0 48.5 1t49.5 1q29 0 51.5 -3t38 -14.5t22.5 -33t7 -60.5q0 -47 -6 -74.5t-21.5 -42t-41 -19.5t-62.5 -5q-23 0 -45.5 1t-44.5 1l-4 -172h24h12t11.5 -1t25.5 -3q47 -4 72 -23.5t36 -48.5t14 -63.5 t9 -71.5q12 -70 48 -137h204q-82 -94 -197.5 -149.5t-248.5 -55.5q-123 0 -231.5 47t-189.5 127t-128 188.5t-47 231.5zM1016 700q39 0 70.5 21.5t53 53.5t33 71t11.5 74q0 53 -8.5 93t-24.5 68q94 -84 149.5 -198.5t55.5 -249.5q0 -106 -36 -201.5t-99 -173.5 q-20 35 -33.5 68.5t-22.5 74.5q-6 35 -11 78t-17.5 85t-34 76t-60.5 50q-6 4 -13 5t-13 5z" />
<glyph unicode="&#xaf;" d="M88 633q0 -139 53.5 -261t144.5 -213t214 -144.5t262 -53.5q137 0 259 53.5t213 144.5t144.5 213t53.5 261q0 137 -53.5 260t-143.5 214t-213 144.5t-260 53.5q-139 0 -262 -53.5t-215 -144.5t-144.5 -214t-52.5 -260zM166 633q0 123 46 230.5t127 188.5t189.5 128 t231.5 47v2q59 0 113.5 -11.5t107.5 -31.5h-143v-674q0 -23 2 -41t-1 -32.5t-13.5 -23.5t-32.5 -12v-180h36q10 0 23 4q111 27 155 91.5t44 183.5v649q68 -39 124 -93t96 -121t62.5 -144.5t22.5 -159.5q0 -123 -47 -230.5t-128 -188.5t-188.5 -128t-230.5 -47t-231.5 47 t-189.5 127t-128 188.5t-47 231.5zM422 537q0 -76 13.5 -133.5t44 -97.5t81.5 -61.5t129 -23.5v182q-53 10 -59 39t-4 82v43t2 43h-207v-73z" />
<glyph unicode="&#xb0;" horiz-adv-x="696" d="M35 1042q0 -61 22.5 -114.5t62.5 -93t93 -62t113 -22.5v2q59 0 111 22.5t92 62.5t63.5 93t23.5 112t-22.5 111.5t-62 92.5t-92 63.5t-111.5 23.5q-61 0 -114.5 -22.5t-93.5 -62.5t-62.5 -93t-22.5 -113zM111 1040q0 43 16 82t46 69t69 46t82 16v-2q43 0 82.5 -16 t69.5 -46t47.5 -69t17.5 -82t-17.5 -81.5t-46 -68.5t-68.5 -46.5t-83 -16.5t-83 16.5t-69 46.5t-46 68.5t-17 83.5z" />
<glyph unicode="&#xb1;" d="M88 633q0 -139 53.5 -261t144.5 -213t214 -144.5t262 -53.5q137 0 259 53.5t213 144.5t144.5 213t53.5 261q0 137 -53.5 260t-143.5 214t-213 144.5t-260 53.5q-139 0 -262 -53.5t-215 -144.5t-144.5 -214t-52.5 -260zM166 633q0 123 46 230.5t127 188.5t189.5 128 t231.5 47v2q123 0 230.5 -47t189.5 -128t129 -189.5t47 -231.5t-47 -230.5t-128 -188.5t-188.5 -128t-230.5 -47t-231.5 47t-189.5 127t-128 188.5t-47 231.5zM444 784h111v179q-14 -10 -20.5 -18.5t-10.5 -12.5t-12 -6t-27 -2h-20h-21v-140zM659 156h195v925h-168 q-4 -20 -10 -40.5t-17 -39.5v-845z" />
<glyph unicode="&#xb4;" horiz-adv-x="464" d="M-2 1231h201l223 299h-332z" />
<glyph unicode="&#xb5;" d="M88 633q0 -139 53.5 -261t144.5 -213t214 -144.5t262 -53.5q137 0 259 53.5t213 144.5t144.5 213t53.5 261q0 137 -53.5 260t-143.5 214t-213 144.5t-260 53.5q-139 0 -262 -53.5t-215 -144.5t-144.5 -214t-52.5 -260zM166 633q0 123 46 230.5t127 188.5t189.5 128 t231.5 47v2q123 0 230.5 -47t189.5 -128t129 -189.5t47 -231.5t-47 -230.5t-128 -188.5t-188.5 -128t-230.5 -47t-231.5 47t-189.5 127t-128 188.5t-47 231.5zM414 449q12 -123 79.5 -205t194.5 -82h17v157q-33 2 -52.5 12.5t-30 28t-14.5 42t-8 57.5h2h-2zM451 588h174 q14 35 29.5 46t47.5 19l3 150q-14 -2 -21.5 -5t-13.5 -8.5t-13.5 -12.5t-19.5 -13l29 74h-164zM506 926h536l19 170h-524zM809 162q147 23 214 106.5t67 239.5q0 59 -15.5 113.5t-46.5 96.5t-77 66.5t-107 24.5h-35v-158q59 -16 75.5 -52t16.5 -101q0 -72 -14.5 -111 t-77.5 -63v-162z" />
<glyph unicode="&#xb6;" horiz-adv-x="1232" d="M137 1030q0 -154 82 -257t234 -126l2 -985h116v1661h293v-1661h117v1661h70v111h-467q-94 0 -176 -26t-141.5 -76t-94.5 -126t-35 -176z" />
<glyph unicode="&#xb7;" horiz-adv-x="512" d="M76 586q0 -63 46 -109.5t109 -46.5t111.5 47t48.5 113q0 31 -12 59.5t-32.5 51t-48.5 37t-58 14.5h-2q-68 0 -115 -49.5t-47 -116.5z" />
<glyph unicode="&#xb8;" horiz-adv-x="237" d="M-51 -479l162 -4l131 172l2 211l-248 2l-2 -213h86z" />
<glyph unicode="&#xba;" d="M88 633q0 -139 53.5 -261t144.5 -213t214 -144.5t262 -53.5q137 0 259 53.5t213 144.5t144.5 213t53.5 261q0 137 -53.5 260t-143.5 214t-213 144.5t-260 53.5q-139 0 -262 -53.5t-215 -144.5t-144.5 -214t-52.5 -260zM166 633q0 131 52 244.5t142 195.5v-158h195v179 h-170q76 63 171 98t204 35v2q106 0 202.5 -36t174.5 -99h-205v-179h207v175q100 -82 158.5 -201t58.5 -256q0 -123 -47 -230.5t-128 -188.5t-188.5 -128t-230.5 -47t-231.5 47t-189.5 127t-128 188.5t-47 231.5zM442 961l17 16l16 16l14 -16l19 -16l-19 -15l-14 -18l-16 18z M643 145h215v949h-215v-949zM1016 961l16 16l17 16l14 -16l18 -16l-18 -15l-14 -18l-17 18z" />
<glyph unicode="&#xbb;" horiz-adv-x="960" d="M109 170l317 279l-4 247l-311 267v-250l163 -142l-165 -145v-256zM496 711l166 -138l-164 -143v-258l311 272v258l-311 263z" />
<glyph unicode="&#xbc;" d="M88 633q0 -139 53.5 -261t144.5 -213t214 -144.5t262 -53.5q137 0 259 53.5t213 144.5t144.5 213t53.5 261q0 137 -53.5 260t-143.5 214t-213 144.5t-260 53.5q-139 0 -262 -53.5t-215 -144.5t-144.5 -214t-52.5 -260zM166 633q0 123 46 230.5t127 188.5t189.5 128 t231.5 47v2q123 0 230.5 -47t189.5 -128t129 -189.5t47 -231.5t-47 -230.5t-128 -188.5t-188.5 -128t-230.5 -47t-231.5 47t-189.5 127t-128 188.5t-47 231.5zM410 666q0 -84 7 -171t35.5 -158t87 -118t162.5 -53v162q-16 4 -32.5 9t-30.5 15q-29 23 -40 62t-12 84t2 89 t3 79q0 41 -1 88t8 88t31.5 72.5t71.5 43.5v160q-92 -2 -148 -44t-89 -106.5t-44 -144.5t-11 -157zM817 164q104 14 159.5 61t82 116t31 153t4.5 174q0 80 -7.5 159.5t-36 144t-84 105.5t-149.5 45v-161q16 -4 31.5 -10.5t30.5 -16.5q25 -20 33 -55t7 -75t-5.5 -80t-4.5 -71 q0 -33 3 -88t-3 -107t-26.5 -91t-65.5 -39v-164z" />
<glyph unicode="&#xbd;" d="M88 633q0 -139 53.5 -261t144.5 -213t214 -144.5t262 -53.5q137 0 259 53.5t213 144.5t144.5 213t53.5 261q0 137 -53.5 260t-143.5 214t-213 144.5t-260 53.5q-139 0 -262 -53.5t-215 -144.5t-144.5 -214t-52.5 -260zM166 633q0 123 46 230.5t127 188.5t189.5 128 t231.5 47v2q123 0 230.5 -47t189.5 -128t129 -189.5t47 -231.5t-47 -230.5t-128 -188.5t-188.5 -128t-230.5 -47t-231.5 47t-189.5 127t-128 188.5t-47 231.5zM442 201h635v168h-635v-168zM442 791l189 -9q0 33 -2 64t3 55.5t22.5 41t54.5 22.5v174q-74 -10 -122 -35 t-78 -65t-44 -95t-21 -129q-2 -8 -2 -24zM522 469l256 2q55 43 105.5 81t89.5 80t62.5 96t23.5 132q0 258 -244 277v-174q45 -10 52 -41t7 -78q0 -59 -38.5 -112.5t-94 -99.5t-116 -87t-103.5 -76z" />
<glyph unicode="&#xbe;" d="M88 633q0 -139 53.5 -261t144.5 -213t214 -144.5t262 -53.5q137 0 259 53.5t213 144.5t144.5 213t53.5 261q0 137 -53.5 260t-143.5 214t-213 144.5t-260 53.5q-139 0 -262 -53.5t-215 -144.5t-144.5 -214t-52.5 -260zM166 633q0 123 46 230.5t127 188.5t189.5 128 t231.5 47v2q123 0 230.5 -47t189.5 -128t129 -189.5t47 -231.5t-47 -230.5t-128 -188.5t-188.5 -128t-230.5 -47t-231.5 47t-189.5 127t-128 188.5t-47 231.5zM432 498q0 -74 14.5 -134.5t47 -104.5t85 -69.5t128.5 -27.5v160q-41 4 -60.5 20t-27 41t-7.5 55v68zM451 813 l2 -4l178 -10q0 31 -1 57.5t4 47t20.5 35t50.5 22.5v155q-141 -16 -198.5 -84.5t-55.5 -218.5zM686 586q16 4 31 4h28q53 0 99.5 -31t48.5 -90q0 -55 -13.5 -97t-72.5 -50v-158q129 6 204.5 83t75.5 214q0 31 -11 68.5t-30.5 69.5t-48 53.5t-65.5 21.5q59 35 88 79t29 115 q0 127 -64.5 181.5t-177.5 64.5v-156q45 -10 52 -34.5t7 -71.5q0 -31 -16 -51.5t-41 -33.5t-54.5 -19.5t-56.5 -6.5q-6 -2 -6 0l-6 2v-157z" />
<glyph unicode="&#xbf;" horiz-adv-x="1185" d="M57 393q0 -80 19.5 -149.5t59.5 -125t99.5 -92t137.5 -49.5q29 -4 57.5 -6t56.5 -6v254q-76 8 -104.5 57.5t-28.5 126.5q0 53 21.5 90t55.5 67t74 59.5t75.5 69.5t62.5 96.5t33 140.5q2 23 2 43v43h-277q2 -63 -22.5 -112.5t-62 -92.5t-83 -83t-84 -88t-65.5 -106.5 t-27 -136.5zM383 1137h301v299h-301v-299zM618 -31q236 14 349.5 128t115.5 362h-290q-4 -51 -10.5 -94t-24 -74t-50 -50.5t-87.5 -21.5l-3 -2v-248z" />
<glyph unicode="&#xc0;" horiz-adv-x="1390" d="M-10 0h364l269 915q16 51 26 101.5t21 101.5q16 -143 62 -278t87 -273l-160 -2l-77 -258h319l94 -307h361l-504 1434h-369zM393 1815l182 -256l191 2l-43 254h-330z" />
<glyph unicode="&#xc1;" horiz-adv-x="1390" d="M-10 0h364l269 915q16 51 26 101.5t21 101.5q16 -143 62 -278t87 -273l-160 -2l-77 -258h319l94 -307h361l-504 1434h-369zM526 1565l195 -2l190 254h-331z" />
<glyph unicode="&#xc2;" horiz-adv-x="1390" d="M-10 0h364l269 915q16 51 26 101.5t21 101.5q16 -143 62 -278t87 -273l-160 -2l-77 -258h319l94 -307h361l-504 1434h-369zM317 1556h238l98 138l105 -135h231l-172 253h-323z" />
<glyph unicode="&#xc3;" horiz-adv-x="1390" d="M-10 0h364l269 915q16 51 26 101.5t21 101.5q16 -143 62 -278t87 -273l-119 -2l-77 -258h278l94 -307h361l-504 1434h-369zM342 1565h154q4 16 17 28.5t30 12.5q33 0 63.5 -7.5t60 -15.5t60.5 -15t61 -7q51 0 87 22.5t58.5 59t33 80.5t10.5 87h-160q-4 -29 -18.5 -38 t-40.5 -9q-61 0 -119.5 21.5t-122.5 21.5q-55 0 -86 -21.5t-48 -56t-25.5 -77.5t-14.5 -86z" />
<glyph unicode="&#xc4;" horiz-adv-x="1390" d="M-10 0h364l269 915q16 51 26 101.5t21 101.5q16 -143 62 -278t87 -273l-139 -2l-78 -258h299l94 -307h361l-504 1434h-369zM297 1567h266v254h-266v-254zM772 1565h268v256h-268v-256z" />
<glyph unicode="&#xc5;" horiz-adv-x="1390" d="M-10 0h364l269 915q16 51 26 101.5t21 101.5q16 -143 62 -278t87 -273l-160 -2l-77 -258h319l94 -307h361l-504 1434h-369zM463 1722q0 -39 14.5 -76.5t40 -68.5t60 -49.5t75.5 -18.5q45 0 86 14.5t72 42t49.5 66.5t18.5 86q0 43 -16.5 81t-46.5 65.5t-67.5 44 t-80.5 16.5t-80 -15.5t-64.5 -43t-44 -64.5t-16.5 -80zM584 1710v19q0 29 24.5 52t53.5 23h16q37 0 58.5 -29.5t21.5 -64.5q0 -33 -26.5 -57.5t-59.5 -24.5v2q-33 0 -60.5 22.5t-27.5 57.5z" />
<glyph unicode="&#xc6;" horiz-adv-x="1900" d="M-18 0h342l503 1204v-645h-112l-103 -250h215v-309h316v1438h-522zM1296 0h578v266h-578v-266zM1296 625h516v258h-516v-258zM1296 1161h574v277h-574v-277z" />
<glyph unicode="&#xc7;" horiz-adv-x="1460" d="M29 717q0 -156 48 -291t137 -235.5t218 -160t289 -61.5v271q-92 2 -156.5 46t-106.5 111.5t-61.5 149.5t-19.5 162q0 82 16.5 167t56 153.5t104 113.5t163.5 49l2 2v264q-162 -4 -290 -61.5t-217 -155.5t-136 -232.5t-47 -291.5zM500 -479l159 -4l134 172l2 211l-246 2 l-4 -213h84zM770 238h2v-271q127 16 229.5 47t179 89.5t127.5 148.5t76 225l-340 23q-14 -119 -85.5 -184.5t-188.5 -77.5zM770 1192q104 -10 172 -63.5t94 -157.5l326 24q-25 119 -77 204t-128 140.5t-174 83t-213 33.5v-264z" />
<glyph unicode="&#xc8;" horiz-adv-x="1243" d="M70 0h319v1436h-319v-1436zM281 1815l186 -256l190 2l-45 254h-331zM547 0h581v266h-581v-266zM547 627h514v258h-514v-258zM547 1169h567v267h-567v-267z" />
<glyph unicode="&#xc9;" horiz-adv-x="1243" d="M70 0h319v1436h-319v-1436zM418 1565l194 -2l191 254h-334zM547 0h581v266h-581v-266zM547 627h514v258h-514v-258zM547 1169h567v267h-567v-267z" />
<glyph unicode="&#xca;" horiz-adv-x="1243" d="M70 0h319v1436h-319v-1436zM207 1556h237l99 138l104 -135h232l-170 253h-328zM547 0h581v266h-581v-266zM547 627h514v258h-514v-258zM547 1169h567v267h-567v-267z" />
<glyph unicode="&#xcb;" horiz-adv-x="1243" d="M70 0h319v1436h-319v-1436zM168 1561h262v254h-262v-254zM547 0h581v266h-581v-266zM547 627h514v258h-514v-258zM547 1169h567v267h-567v-267zM643 1561h264v256h-264v-256z" />
<glyph unicode="&#xcc;" horiz-adv-x="632" d="M72 1815l182 -256l192 2l-43 254h-331zM195 0h321v1434h-321v-1434z" />
<glyph unicode="&#xcd;" horiz-adv-x="630" d="M92 0h322v1434h-322v-1434zM104 1565l195 -2l193 254h-336z" />
<glyph unicode="&#xce;" horiz-adv-x="620" d="M-49 1556h237l101 138l104 -135h232l-172 253h-324zM150 0h321v1434h-321v-1434z" />
<glyph unicode="&#xcf;" horiz-adv-x="612" d="M-86 1561h260v254h-260v-254zM150 0h321v1434h-321v-1434zM391 1561h260v256h-260v-256z" />
<glyph unicode="&#xd1;" horiz-adv-x="1423" d="M104 0h322l-14 817l-308 518v-1335zM109 1432l856 -1432h307l-860 1432h-303zM348 1563l154 2q4 16 17 28.5t32 12.5q31 0 61.5 -7.5t60 -15.5t60.5 -15t62 -7q57 0 91 22.5t52 58t27.5 79.5t17.5 89h-158q-4 -29 -18 -38t-41 -9q-63 0 -121.5 21.5t-120.5 21.5 q-51 0 -84.5 -22.5t-53 -57t-29 -77.5t-9.5 -86zM946 1434l15 -811l309 -517v1328h-324z" />
<glyph unicode="&#xd2;" horiz-adv-x="1591" d="M63 723q0 -129 28 -251t87.5 -222t153.5 -171t227 -95q33 -6 65.5 -7.5t67.5 -1.5l2 273q-98 20 -155.5 61t-88 101.5t-40 139.5t-9.5 173q0 86 10.5 166t42 144.5t89 108.5t151.5 54v2v272q-160 -4 -278.5 -63t-196.5 -159.5t-117 -235.5t-39 -289zM489 1815l183 -256 l190 2l-41 254h-332zM850 -27h37q154 0 265.5 64.5t184 170t108.5 240t36 275.5q0 328 -151.5 523.5t-479.5 223.5v-274q102 -10 160.5 -54t88 -111.5t37 -151.5t7.5 -174q0 -94 -10.5 -170t-41 -134.5t-88 -97.5t-153.5 -57v-273z" />
<glyph unicode="&#xd3;" horiz-adv-x="1591" d="M63 723q0 -129 28 -251t87.5 -222t153.5 -171t227 -95q33 -6 65.5 -7.5t67.5 -1.5l2 273q-98 20 -155.5 61t-88 101.5t-40 139.5t-9.5 173q0 86 10.5 166t42 144.5t89 108.5t151.5 54v2v272q-160 -4 -278.5 -63t-196.5 -159.5t-117 -235.5t-39 -289zM625 1565l194 -2 l191 254h-334zM850 -27h37q154 0 265.5 64.5t184 170t108.5 240t36 275.5q0 328 -151.5 523.5t-479.5 223.5v-274q102 -10 160.5 -54t88 -111.5t37 -151.5t7.5 -174q0 -94 -10.5 -170t-41 -134.5t-88 -97.5t-153.5 -57v-273z" />
<glyph unicode="&#xd4;" horiz-adv-x="1591" d="M63 723q0 -129 28 -251t87.5 -222t153.5 -171t227 -95q33 -6 65.5 -7.5t67.5 -1.5l2 273q-98 20 -155.5 61t-88 101.5t-40 139.5t-9.5 173q0 86 10.5 166t42 144.5t89 108.5t151.5 54v2v272q-160 -4 -278.5 -63t-196.5 -159.5t-117 -235.5t-39 -289zM412 1556h239l99 138 l102 -135h233l-172 253h-321zM850 -27h37q154 0 265.5 64.5t184 170t108.5 240t36 275.5q0 328 -151.5 523.5t-479.5 223.5v-274q102 -10 160.5 -54t88 -111.5t37 -151.5t7.5 -174q0 -94 -10.5 -170t-41 -134.5t-88 -97.5t-153.5 -57v-273z" />
<glyph unicode="&#xd5;" horiz-adv-x="1587" d="M63 723q0 -129 29 -251t90.5 -222t157.5 -171t229 -95q33 -6 66 -7.5t67 -1.5l3 273q-98 20 -158 61t-91.5 101.5t-43 139.5t-11.5 173q0 86 12.5 166t46.5 144.5t92 108.5t153 54v2v272q-160 -4 -280 -63t-201 -159.5t-121 -235.5t-40 -289zM440 1565h156 q4 16 17.5 28.5t29.5 12.5q31 0 61.5 -7.5t60.5 -15.5t60.5 -15t61.5 -7q51 0 87 22.5t58.5 58t32.5 80.5t10 88h-160q-4 -29 -18 -38t-41 -9q-61 0 -119.5 21.5t-120.5 21.5h-2q-55 0 -85.5 -21.5t-48 -56t-26 -77.5t-14.5 -86zM840 -27h37q154 0 266 64.5t188 170t113 240 t37 275.5q0 328 -157 523.5t-484 223.5v-274q102 -10 162.5 -54t91 -111.5t40 -151.5t9.5 -174q0 -94 -11.5 -170t-44 -134.5t-92 -97.5t-155.5 -57v-273z" />
<glyph unicode="&#xd6;" horiz-adv-x="1589" d="M63 723q0 -129 29 -251t90.5 -222t157.5 -171t229 -95q33 -6 66 -7.5t67 -1.5l3 273q-98 20 -158 61t-91.5 101.5t-43 139.5t-11.5 173q0 86 12.5 166t46.5 144.5t92 108.5t153 54v2v272q-160 -4 -280 -63t-201 -159.5t-121 -235.5t-40 -289zM401 1565h263v252h-263v-252 zM840 -27h37q154 0 266 64.5t188 170t113 240t37 275.5q0 328 -157 523.5t-484 223.5v-274q102 -10 162.5 -54t91 -111.5t40 -151.5t9.5 -174q0 -94 -11.5 -170t-44 -134.5t-92 -97.5t-155.5 -57v-273zM877 1565h262v252h-262v-252z" />
<glyph unicode="&#xd7;" d="M88 633q0 -139 53.5 -261t144.5 -213t214 -144.5t262 -53.5q137 0 259 53.5t213 144.5t144.5 213t53.5 261q0 137 -53.5 260t-143.5 214t-213 144.5t-260 53.5q-139 0 -262 -53.5t-215 -144.5t-144.5 -214t-52.5 -260zM166 633q0 123 46 230.5t127 188.5t189.5 128 t231.5 47v2q123 0 230.5 -47t189.5 -128t129 -189.5t47 -231.5t-47 -230.5t-128 -188.5t-188.5 -128t-230.5 -47t-231.5 47t-189.5 127t-128 188.5t-47 231.5zM418 459q0 -143 74.5 -217t209.5 -78v155q-109 8 -108 134q0 68 44 106.5t110 38.5q72 0 116.5 -36t44.5 -111 q0 -57 -37.5 -91t-91.5 -41v-157q68 6 123 26.5t96 56.5t63.5 89t22.5 127q2 78 -28.5 125t-93.5 88q25 8 44 29.5t31.5 47t18.5 54.5t6 53q0 68 -22.5 114t-60.5 76.5t-90 46t-112 21.5v-153q47 -8 77 -31t30 -80q0 -66 -42 -93.5t-102 -27.5q-53 0 -86.5 32t-33.5 85 q0 51 16 77.5t63 37.5v153q-109 -8 -182.5 -71.5t-73.5 -184.5q0 -63 22.5 -108t76.5 -80q-63 -45 -94 -89t-31 -124z" />
<glyph unicode="&#xd8;" horiz-adv-x="1599" d="M68 731q0 -84 10 -153.5t31.5 -134t57.5 -126t85 -129.5l-131 -163l98 -82l131 155q82 -70 168 -98.5t191 -30.5l2 275q-29 2 -51.5 8t-41 17.5t-37 27.5t-38.5 35l549 667q27 -74 42 -147.5t15 -151.5q0 -88 -12.5 -165.5t-46 -138t-94 -100.5t-154.5 -52l2 -275 q31 4 41 5t41 6q63 8 128.5 36.5t125 71.5t110.5 95.5t86 105.5q59 94 85 202.5t26 219.5q0 63 -11.5 139t-34 150.5t-58 140t-87.5 108.5l148 178l-107 84l-139 -172q-47 31 -87 53.5t-81 37t-85 22.5t-99 12v-272q55 -2 88 -23.5t74 -62.5l-547 -662q-29 66 -41 129.5 t-12 135.5q0 78 12 163.5t46 156.5t92 117t151 46h2v274q-324 -27 -483.5 -217t-159.5 -518z" />
<glyph unicode="&#xd9;" horiz-adv-x="1390" d="M98 522q0 -145 24.5 -249.5t82 -172t154 -100.5t241.5 -35l-2 275q-68 8 -103.5 30.5t-52 57t-18.5 84t-2 112.5v906h-324v-908zM391 1815l182 -256l191 2l-43 254h-330zM752 -31q154 6 250 40t151 102.5t75.5 175t20.5 258.5v885h-325v-867q0 -61 2 -117.5t-11.5 -100.5 t-50.5 -70.5t-112 -28.5v-2v-275z" />
<glyph unicode="&#xda;" horiz-adv-x="1390" d="M98 522q0 -145 24.5 -249.5t82 -172t154 -100.5t241.5 -35l-2 275q-68 8 -103.5 30.5t-52 57t-18.5 84t-2 112.5v906h-324v-908zM524 1565l195 -2l190 254h-331zM752 -31q154 6 250 40t151 102.5t75.5 175t20.5 258.5v885h-325v-867q0 -61 2 -117.5t-11.5 -100.5 t-50.5 -70.5t-112 -28.5v-2v-275z" />
<glyph unicode="&#xdb;" horiz-adv-x="1390" d="M98 522q0 -145 24.5 -249.5t82 -172t154 -100.5t241.5 -35l-2 275q-68 8 -103.5 30.5t-52 57t-18.5 84t-2 112.5v906h-324v-908zM315 1556h238l98 138l105 -135h231l-172 253h-323zM752 -31q154 6 250 40t151 102.5t75.5 175t20.5 258.5v885h-325v-867q0 -61 2 -117.5 t-11.5 -100.5t-50.5 -70.5t-112 -28.5v-2v-275z" />
<glyph unicode="&#xdc;" horiz-adv-x="1390" d="M98 522q0 -145 26 -249.5t86 -172t157.5 -100.5t242.5 -35l-2 275q-68 8 -104.5 30.5t-55 57t-22.5 84t-4 112.5v906h-324v-908zM301 1561h264v254h-264v-254zM741 -31q154 6 252.5 40t154.5 102.5t78.5 175t22.5 258.5v885h-325v-867v-119q0 -55 -15.5 -99t-53.5 -70.5 t-114 -28.5v-2v-275zM776 1561h268v256h-268v-256z" />
<glyph unicode="&#xdd;" d="M88 633q0 -139 53.5 -261t144.5 -213t214 -144.5t262 -53.5q137 0 259 53.5t213 144.5t144.5 213t53.5 261q0 137 -53.5 260t-143.5 214t-213 144.5t-260 53.5q-139 0 -262 -53.5t-215 -144.5t-144.5 -214t-52.5 -260zM166 633q0 123 46 230.5t127 188.5t189.5 128 t231.5 47v2q123 0 230.5 -47t189.5 -128t129 -189.5t47 -231.5t-47 -230.5t-128 -188.5t-188.5 -128t-230.5 -47t-231.5 47t-189.5 127t-128 188.5t-47 231.5zM399 633q0 -74 5.5 -149.5t28 -140t70.5 -112t134 -61.5q12 -2 24.5 -3t26.5 -3v160q-61 10 -79.5 54t-18.5 105 q0 72 38 122t115 50q72 0 108 -48t36 -115q0 -61 -16.5 -109.5t-77.5 -58.5l-2 -160q147 16 209.5 104t62.5 238q0 63 -20.5 119.5t-57.5 97.5t-90 65.5t-119 24.5q-63 0 -111.5 -23.5t-91.5 -70.5q4 37 7.5 76t12.5 71.5t30.5 57t64.5 34.5v154q-96 -12 -153.5 -57 t-87 -110.5t-39 -145.5t-9.5 -166zM791 963q27 -4 41 -10.5t21 -16.5t10 -27.5t7 -46.5l177 8q-16 111 -71.5 177.5t-168.5 66.5h-16v-151z" />
<glyph unicode="&#xde;" d="M88 633q0 -139 53.5 -261t144.5 -213t214 -144.5t262 -53.5q137 0 259 53.5t213 144.5t144.5 213t53.5 261q0 137 -53.5 260t-143.5 214t-213 144.5t-260 53.5q-139 0 -262 -53.5t-215 -144.5t-144.5 -214t-52.5 -260zM166 633q0 123 46 230.5t127 188.5t189.5 128 t231.5 47v2q123 0 230.5 -47t189.5 -128t129 -189.5t47 -231.5t-47 -230.5t-128 -188.5t-188.5 -128t-230.5 -47t-231.5 47t-189.5 127t-128 188.5t-47 231.5zM467 926h610v170h-610v-170zM580 176h206q0 182 63.5 348t192.5 301l-192 -2q-35 -37 -64 -86 q-51 -80 -85.5 -142.5t-59.5 -123.5t-39 -131t-22 -164z" />
<glyph unicode="&#xdf;" horiz-adv-x="1271" d="M96 0h307v987q0 43 -2 82t5.5 70.5t30 53t71.5 32.5l2 241q-115 -10 -193.5 -36.5t-128 -81t-71 -137.5t-21.5 -203v-1008zM528 -6q45 -10 73 -16.5t75 -6.5q217 0 336 121t121 338q0 74 -13.5 131t-42 103.5t-74 85t-106.5 73.5q80 49 122 116t42 165q0 94 -34 163.5 t-91 113.5t-133 65.5t-160 21.5v-243q68 -10 92.5 -52.5t26.5 -113.5q0 -78 -54.5 -116t-125.5 -38h-29q-2 0 -25 2l2 -211q10 2 14.5 3t7.5 2t7 1h14q111 0 184.5 -51t73.5 -174q0 -53 -11 -100t-36.5 -83t-67.5 -57.5t-102 -21.5h-26q-8 0 -16.5 1t-17.5 2t-26 3v-227z " />
<glyph unicode="&#xe0;" horiz-adv-x="1183" d="M47 315q0 -82 29.5 -146.5t81 -110.5t121 -70.5t147.5 -24.5q39 0 60.5 -5t40 -6t37.5 3t54 22q-4 27 -7 73t-3 73v63q0 31 2 62q-25 -12 -34 -19.5t-15 -11.5t-16 -5t-41 -1q-49 0 -95.5 28.5t-46.5 84.5q0 51 26 78.5t62.5 42t79.5 19.5t80 11v215q-20 -4 -28 -4h-15 q-4 0 -12 -1t-29 -5q-86 -16 -172 -33.5t-153.5 -54.5t-110.5 -101.5t-43 -175.5zM106 743h291q2 72 55.5 106t118.5 34q78 0 126 -31t48 -117v-571q0 -88 21 -164h328q-25 78 -32 158t-7 159q0 76 3 150t3 147q0 133 -23.5 229.5t-80 158t-149.5 91t-230 29.5v2 q-72 0 -147 -15t-139.5 -50t-110.5 -90.5t-62 -134.5q-4 -23 -6 -45.5t-7 -45.5zM246 1528l248 -299h200l-98 299h-350z" />
<glyph unicode="&#xe1;" horiz-adv-x="1183" d="M47 315q0 -82 29.5 -146.5t81 -110.5t121 -70.5t147.5 -24.5q39 0 60.5 2t40 7t37.5 16.5t54 29.5q-10 57 -10 105v63q0 31 2 62q-25 -12 -34 -19.5t-15 -11.5t-16 -5t-41 -1q-49 0 -95.5 28.5t-46.5 84.5q0 51 26 78.5t62.5 42t79.5 19.5t80 11v215q-20 -4 -28 -4h-15 q-4 0 -12 -1t-29 -5q-86 -16 -172 -33.5t-153.5 -54.5t-110.5 -101.5t-43 -175.5zM106 743h291q2 72 55.5 106t118.5 34q78 0 126 -31t48 -117v-571q0 -88 21 -164h328q-25 78 -32 158t-7 159q0 76 3 150t3 147q0 133 -23.5 229.5t-80 158t-149.5 91t-230 29.5v2 q-72 0 -147 -15t-139.5 -50t-110.5 -90.5t-62 -134.5q-4 -23 -6 -45.5t-7 -45.5zM430 1231h199l225 299h-332z" />
<glyph unicode="&#xe2;" horiz-adv-x="1202" d="M55 315q0 -82 30 -146.5t81 -110.5t120.5 -70.5t147.5 -24.5q39 0 60.5 2t40 7t38 16.5t54.5 29.5q-10 57 -11 105v63q0 31 2 62q-25 -12 -34 -19.5t-15 -11.5t-16 -5t-41 -1q-49 0 -95 28.5t-46 84.5q0 51 25.5 78.5t62.5 42t80 19.5t79 11v215q-20 -4 -28 -4h-15 q-4 0 -12 -1t-28 -5q-86 -16 -172.5 -33.5t-154 -54.5t-110.5 -101.5t-43 -175.5zM115 743h291q2 72 55 106t119 34q78 0 126 -31t48 -117v-571q0 -88 20 -164h328q-25 78 -32 158t-7 159q0 76 3 150t3 147q0 133 -23.5 229.5t-80 158t-149.5 91t-230 29.5v2 q-72 0 -146.5 -15t-139 -50t-111 -90.5t-62.5 -134.5q-4 -23 -6 -45.5t-6 -45.5zM233 1219h234l104 170l99 -170h229l-182 307h-287z" />
<glyph unicode="&#xe3;" horiz-adv-x="1202" d="M55 317q0 -82 30 -146.5t81 -110.5t120.5 -70.5t147.5 -24.5q49 0 95 9.5t70 16.5t28 9q0 2 -2 19.5t-5.5 43t-3.5 41.5v64t2 61q-25 -12 -32.5 -16t-14.5 -4q-6 0 -17 2t-42 2q-49 0 -95 28.5t-46 84.5q0 51 25.5 75.5t62.5 34.5t80 12.5t79 8.5v215q-2 0 -20 3t-39.5 5 t-23.5 2q-84 -16 -169 -33.5t-155 -54.5t-113 -101.5t-43 -175.5zM115 745h291q2 72 55 106t119 34q78 0 126 -31t48 -117v-571q0 -88 20 -164h328q-25 78 -32 158t-7 159q0 76 3 150t3 147q0 133 -23.5 229.5t-80 158t-149.5 91t-230 29.5v2q-72 0 -146.5 -15t-139 -50 t-111 -90.5t-62.5 -134.5q-4 -23 -6 -45.5t-6 -45.5zM270 1253q0 -16 4 -32l142 2q-4 31 10 58.5t51 27.5q29 0 60.5 -13.5t65.5 -30t70 -30.5t70 -14q45 0 73 18t43 49t19.5 69t4.5 75v38v25q0 14 -2 29v-2h-133q-4 -29 -15.5 -55.5t-46.5 -26.5q-25 0 -54.5 13t-61 29.5 t-65.5 30t-67 13.5q-53 0 -86 -21.5t-51 -55.5t-24.5 -77t-6.5 -86v-33z" />
<glyph unicode="&#xe4;" horiz-adv-x="1206" d="M57 315q0 -82 30 -146.5t81 -110.5t120.5 -70.5t147.5 -24.5q39 0 60.5 2t40 7t38 16.5t54.5 29.5q-6 33 -8.5 66t-2.5 68q0 25 1.5 49t3.5 49q-27 -14 -36 -21.5t-15.5 -11.5t-16.5 -5t-41 -1q-49 0 -95 28.5t-46 84.5q0 51 25.5 78.5t62.5 42t80 19.5t80 11v215 q-20 -4 -29 -4h-14q-4 0 -12.5 -1t-28.5 -5q-86 -16 -172 -33.5t-154 -54.5t-111 -101.5t-43 -175.5zM117 743h289q16 80 64 109t126 31q72 0 115 -32t43 -110l2 -577q0 -88 20 -164h328q-25 78 -32 158t-7 159q0 76 3 150t3 147q0 133 -23.5 229.5t-80 158t-149.5 91 t-230 29.5v2q-72 0 -146.5 -15t-139 -50t-111 -90.5t-62.5 -134.5q-4 -23 -6 -45.5t-6 -45.5zM287 1186h280v250h-280v-250zM733 1186h279v252h-279v-252z" />
<glyph unicode="&#xe5;" horiz-adv-x="1212" d="M59 317q0 -82 30 -146.5t81 -110.5t120.5 -70.5t147.5 -24.5q49 0 100.5 14.5t80 26.5t32.5 14q0 2 -2 18.5t-5 40t-3 40.5v63q0 33 2 66q-25 -12 -37 -19.5t-23.5 -11.5t-25.5 -5t-43 -1q-53 0 -97 29.5t-44 87.5q0 49 29.5 75.5t70.5 42t87 20.5t81 11v215 q-20 -4 -33 -4h-20q-8 0 -19.5 -1t-31.5 -5q-86 -16 -171 -33.5t-153 -54.5t-111 -101.5t-43 -175.5zM119 745h291q2 72 55 106t119 34q78 0 126 -31t48 -117v-571q0 -88 20 -164h328q-25 78 -32 158t-7 159q0 76 3 150t3 147q0 133 -23.5 229.5t-80 158t-149.5 91 t-230 29.5v2q-72 0 -146.5 -15t-139 -50t-111 -90.5t-62.5 -134.5q-4 -23 -6 -45.5t-6 -45.5zM442 1374q0 -82 55.5 -137t139.5 -57q39 0 76 13t65.5 36.5t45 57.5t16.5 77q0 86 -53.5 146.5t-141.5 60.5h-2q-41 0 -77 -15.5t-63.5 -41t-44 -61.5t-16.5 -79zM565 1370 q0 35 25.5 56.5t60.5 23.5q31 0 45.5 -22.5t22.5 -49.5q-4 -29 -20.5 -54.5t-51.5 -25.5l-2 -2q-31 0 -55.5 19.5t-24.5 54.5z" />
<glyph unicode="&#xe6;" horiz-adv-x="1949" d="M41 342q0 -96 32.5 -167t90 -117t135.5 -68.5t168 -22.5q57 0 113.5 14.5t100.5 33t58 25.5l41 21l-123 228q0 -2 -10 -19.5t-41 -38t-82 -20.5q-63 0 -115.5 27.5t-52.5 99.5q0 45 16.5 70.5t42 38t58.5 14.5t66 2q23 0 46 -1t46 -1h2v229h-68q-94 0 -188 -7t-169 -41 t-121 -104.5t-46 -195.5zM92 756h291q16 74 67.5 102.5t122.5 28.5q61 0 99.5 -16.5t59 -46t26.5 -72.5t6 -97v-92t4 -90q23 -248 169 -375t392 -127q186 0 304 80t206 242q4 8 8 15t8 16l-321 20q-27 -57 -84 -86t-119 -29q-74 0 -123 28t-78.5 74t-43 105.5t-13.5 122.5 q0 66 10.5 125t39 105.5t77.5 74t125 27.5q88 0 143.5 -53.5t69.5 -139.5l-297 2q-8 -27 -10 -53t-2 -55v-66q0 -31 4 -63h633q-2 53 -4 105.5t-13 105.5q-43 213 -177 337t-357 124q-98 0 -189.5 -32t-167.5 -91q-33 33 -78.5 56.5t-97 36.5t-103.5 19t-97 6h-2 q-104 0 -185.5 -18t-141.5 -62t-100 -116t-61 -178z" />
<glyph unicode="&#xe7;" horiz-adv-x="1298" d="M55 541q0 -254 133.5 -405t391.5 -167v267q-61 16 -100.5 47.5t-61 73.5t-29.5 94.5t-8 109.5q0 51 8 103.5t30.5 96.5t60.5 75.5t98 40.5h2v256q-129 -8 -227.5 -55.5t-164 -125.5t-99.5 -182t-34 -229zM457 -479l161 -4l132 172l2 211l-248 2l-2 -213h84zM711 -29 q217 16 329.5 123t157.5 316l-307 12q-18 -78 -57 -126t-123 -63v-262zM711 879q82 -16 118.5 -56.5t53.5 -117.5l307 14q-8 35 -15.5 67.5t-19.5 65.5q-27 72 -73 123t-104 85t-127 51t-140 24v-256z" />
<glyph unicode="&#xe8;" horiz-adv-x="1265" d="M61 539q0 -127 38 -232.5t110 -180.5t175 -116t232 -41q104 0 183.5 20.5t142 62.5t112.5 108.5t93 158.5l-316 23q-35 -57 -83 -88t-115 -31q-72 0 -121 29t-80 75t-44 106.5t-13 121.5q0 59 11 118.5t39 106.5t75 77t116 30q96 0 147.5 -52.5t70.5 -140.5h-285 q-6 -29 -11.5 -58.5t-5.5 -57.5q0 -31 3.5 -61t7.5 -58h616v47q0 129 -32.5 242.5t-99 198.5t-169 134t-242.5 49q-129 0 -231 -46t-174 -125.5t-111 -187t-39 -232.5zM264 1528l248 -299h199l-99 299h-348z" />
<glyph unicode="&#xe9;" horiz-adv-x="1265" d="M61 539q0 -127 38 -232.5t110 -180.5t175 -116t232 -41q104 0 183.5 20.5t142 62.5t112.5 108.5t93 158.5l-316 23q-35 -57 -83 -88t-115 -31q-72 0 -121 29t-80 75t-44 106.5t-13 121.5q0 59 11 118.5t39 106.5t75 77t116 30q96 0 147.5 -52.5t70.5 -140.5h-285 q-6 -29 -11.5 -58.5t-5.5 -57.5q0 -31 3.5 -61t7.5 -58h616v47q0 129 -32.5 242.5t-99 198.5t-169 134t-242.5 49q-129 0 -231 -46t-174 -125.5t-111 -187t-39 -232.5zM451 1231h198l225 299h-331z" />
<glyph unicode="&#xea;" horiz-adv-x="1265" d="M61 539q0 -127 38 -232.5t110 -180.5t175 -116t232 -41q104 0 183.5 20.5t142 62.5t112.5 108.5t93 158.5l-316 23q-35 -57 -83 -88t-115 -31q-72 0 -121 29t-80 75t-44 106.5t-13 121.5q0 59 11 118.5t39 106.5t75 77t116 30q96 0 147.5 -52.5t70.5 -140.5h-285 q-6 -29 -11.5 -58.5t-5.5 -57.5q0 -31 3.5 -61t7.5 -58h616v47q0 129 -32.5 242.5t-99 198.5t-169 134t-242.5 49q-129 0 -231 -46t-174 -125.5t-111 -187t-39 -232.5zM246 1219h233l103 170l100 -170h227l-180 307h-289z" />
<glyph unicode="&#xeb;" horiz-adv-x="1265" d="M61 539q0 -127 38 -232.5t110 -180.5t175 -116t232 -41q104 0 183.5 20.5t142 62.5t112.5 108.5t93 158.5l-316 23q-35 -57 -83 -88t-115 -31q-72 0 -121 29t-80 75t-44 106.5t-13 121.5q0 59 11 118.5t39 106.5t75 77t116 30q96 0 147.5 -52.5t70.5 -140.5h-306 q-6 -29 -11 -58.5t-5 -57.5q0 -31 3 -61t7 -58h637v47q0 129 -32.5 242.5t-99 198.5t-169 134t-242.5 49q-129 0 -231 -46t-174 -125.5t-111 -187t-39 -232.5zM219 1227h283v252h-283v-252zM666 1227h278v252h-278v-252z" />
<glyph unicode="&#xec;" horiz-adv-x="612" d="M35 1528l248 -299h200l-98 299h-350zM217 0h313v1100h-313v-1100z" />
<glyph unicode="&#xed;" horiz-adv-x="616" d="M70 0h313v1100h-313v-1100zM74 1231h200l226 299h-332z" />
<glyph unicode="&#xee;" horiz-adv-x="686" d="M-10 1219h231l105 170l100 -170h225l-178 307h-287zM190 0h312v1100h-312v-1100z" />
<glyph unicode="&#xef;" horiz-adv-x="710" d="M-27 1227h279v252h-279v-252zM199 0h311v1100h-311v-1100zM420 1227h274v252h-274v-252z" />
<glyph unicode="&#xf1;" horiz-adv-x="1243" d="M100 0h316v1098h-316v-1098zM274 1298q0 -18 1 -37.5t4 -39.5l143 2q-2 31 9 58.5t50 27.5q31 0 62.5 -13.5t65.5 -30t69 -30.5t70 -14q47 0 74.5 18t42 49t18.5 69t4 75v90h-137q2 -29 -12.5 -55.5t-47.5 -26.5q-25 0 -54.5 13t-61 29.5t-64.5 30t-66 13.5 q-49 0 -81.5 -20.5t-52 -52.5t-28 -72t-8.5 -83zM573 824l2 -7v21q4 4 14.5 9t33.5 5q82 0 120.5 -59.5t38.5 -133.5v-659h318v676q0 82 -19.5 160.5t-61.5 141t-107.5 100.5t-159.5 38q-55 0 -96.5 -13t-58.5 -24.5t-19 -13.5h-3v-227q-4 -8 -2 -14z" />
<glyph unicode="&#xf2;" horiz-adv-x="1314" d="M63 549q0 -102 19.5 -197.5t65 -173.5t117 -131t175.5 -72q29 -4 58.5 -5t58.5 -3v254q-70 16 -105.5 47t-51 74t-16.5 97.5t-1 119.5q0 55 4 109.5t20.5 99.5t52.5 74.5t97 38.5v252q-123 -4 -216 -50.5t-154.5 -125t-92.5 -183t-31 -225.5zM291 1528l250 -299h198 l-100 299h-348zM711 -31q27 4 51 6t49 7q104 20 179 74.5t123 132t69.5 174t21.5 198.5q0 252 -123 404.5t-370 167.5v-250q68 -12 102.5 -42t50 -74t17.5 -98.5t2 -115.5q0 -53 -4.5 -108.5t-20.5 -102.5t-51 -79t-96 -40v-254z" />
<glyph unicode="&#xf3;" horiz-adv-x="1314" d="M63 549q0 -102 19.5 -197.5t65 -173.5t117 -131t175.5 -72q29 -4 58.5 -5t58.5 -3v254q-70 16 -105.5 47t-51 74t-16.5 97.5t-1 119.5q0 55 4 109.5t20.5 99.5t52.5 74.5t97 38.5v252q-123 -4 -216 -50.5t-154.5 -125t-92.5 -183t-31 -225.5zM475 1231h201l225 299h-332z M711 -31q27 4 51 6t49 7q104 20 179 74.5t123 132t69.5 174t21.5 198.5q0 252 -123 404.5t-370 167.5v-250q68 -12 102.5 -42t50 -74t17.5 -98.5t2 -115.5q0 -53 -4.5 -108.5t-20.5 -102.5t-51 -79t-96 -40v-254z" />
<glyph unicode="&#xf4;" horiz-adv-x="1314" d="M63 549q0 -102 19.5 -197.5t65 -173.5t117 -131t175.5 -72q29 -4 58.5 -5t58.5 -3v254q-70 16 -105.5 47t-51 74t-16.5 97.5t-1 119.5q0 55 4 109.5t20.5 99.5t52.5 74.5t97 38.5v252q-123 -4 -216 -50.5t-154.5 -125t-92.5 -183t-31 -225.5zM272 1219h236l100 170 l101 -170h229l-182 307h-289zM711 -31q27 4 51 6t49 7q104 20 179 74.5t123 132t69.5 174t21.5 198.5q0 252 -123 404.5t-370 167.5v-250q68 -12 102.5 -42t50 -74t17.5 -98.5t2 -115.5q0 -53 -4.5 -108.5t-20.5 -102.5t-51 -79t-96 -40v-254z" />
<glyph unicode="&#xf5;" horiz-adv-x="1314" d="M63 549q0 -102 19.5 -197.5t65 -173.5t117 -131t175.5 -72q29 -4 58.5 -5t58.5 -3v254q-70 16 -105.5 47t-51 74t-16.5 97.5t-1 119.5q0 55 4 109.5t20.5 99.5t52.5 74.5t97 38.5v252q-123 -4 -216 -50.5t-154.5 -125t-92.5 -183t-31 -225.5zM309 1298q0 -18 1 -37.5 t3 -39.5l144 2q-2 33 7 60.5t50 27.5q31 0 62.5 -14.5t65.5 -31t68.5 -30.5t71.5 -14q49 0 77 19.5t41 52t17.5 72.5t4.5 77q0 20 -1 39.5t-1 40.5h-136q2 -29 -13 -56.5t-48 -27.5q-25 0 -53.5 14t-61.5 30.5t-66.5 30t-66.5 13.5q-49 0 -81 -20.5t-51 -52.5t-26.5 -73 t-7.5 -82zM711 -31q27 4 51 6t49 7q104 20 179 74.5t123 132t69.5 174t21.5 198.5q0 252 -123 404.5t-370 167.5v-250q68 -12 102.5 -42t50 -74t17.5 -98.5t2 -115.5q0 -53 -4.5 -108.5t-20.5 -102.5t-51 -79t-96 -40v-254z" />
<glyph unicode="&#xf6;" horiz-adv-x="1314" d="M63 549q0 -102 19.5 -197.5t65 -173.5t117 -131t175.5 -72q29 -4 58.5 -5t58.5 -3v254q-70 16 -105.5 47t-51 74t-16.5 97.5t-1 119.5q0 55 4 109.5t20.5 99.5t52.5 74.5t97 38.5v252q-123 -4 -216 -50.5t-154.5 -125t-92.5 -183t-31 -225.5zM270 1436l2 -250h283v250 h-285zM711 -31q27 4 51 6t49 7q104 20 179 74.5t123 132t69.5 174t21.5 198.5q0 252 -123 404.5t-370 167.5v-250q68 -12 102.5 -42t50 -74t17.5 -98.5t2 -115.5q0 -53 -4.5 -108.5t-20.5 -102.5t-51 -79t-96 -40v-254zM717 1188h280v250h-280v-250z" />
<glyph unicode="&#xf7;" d="M88 633q0 -139 53.5 -261t144.5 -213t214 -144.5t262 -53.5q137 0 259 53.5t213 144.5t144.5 213t53.5 261q0 168 -77 311t-206 236v8h-12q-80 55 -175.5 86t-199.5 31q-106 0 -201.5 -31t-177.5 -86h-6v-4q-131 -92 -211 -235.5t-78 -315.5zM166 633q0 137 56.5 255 t154.5 199v-845h215v946h-45q49 18 102 28.5t111 10.5v2q111 0 215 -41h-41v-361h-240v-178h240v-407h215v839q96 -82 151.5 -197.5t55.5 -250.5q0 -123 -47 -230.5t-128 -188.5t-188.5 -128t-230.5 -47t-231.5 47t-189.5 127t-128 188.5t-47 231.5z" />
<glyph unicode="&#xf8;" horiz-adv-x="1320" d="M66 547q0 -61 7 -111.5t23.5 -94.5t41 -87t61.5 -92l-125 -146l94 -86l121 144q39 -23 71.5 -41.5t63.5 -31.5t65.5 -21.5t81.5 -10.5v252q-39 8 -56 20.5t-46 39.5l401 452q20 -41 27.5 -86t7.5 -90q0 -61 -7 -116.5t-28.5 -99.5t-61.5 -74.5t-103 -43.5v-252 q254 20 379.5 178t125.5 412q0 117 -34.5 210t-100.5 185l123 146l-94 84l-125 -144q-41 23 -71.5 40.5t-60.5 28.5t-62.5 17.5t-79.5 10.5v-250q18 -2 29 -6t20.5 -10.5t19.5 -14.5t27 -16l-404 -457q-25 86 -24 176q0 66 6 119t26.5 95t60.5 72t107 46v244 q-260 -23 -383.5 -176.5t-123.5 -413.5z" />
<glyph unicode="&#xf9;" horiz-adv-x="1247" d="M102 451q0 -86 14.5 -171t51.5 -153t102.5 -111t169.5 -43q53 0 99.5 11.5t69 21.5t24.5 12l-2 232v4v-4q0 -4 -9.5 -11.5t-39.5 -7.5q-47 0 -79 20.5t-50.5 53.5t-26.5 73t-8 81l-2 643h-314v-651zM260 1528l248 -299h199l-99 299h-348zM786 0h314v1102h-314v-1102z" />
<glyph unicode="&#xfa;" horiz-adv-x="1249" d="M102 451q0 -86 14.5 -171t51.5 -153t102.5 -111t169.5 -43q53 0 99.5 11.5t69 21.5t24.5 12l-2 232q2 2 1 3l-1 1v-4q0 -4 -9.5 -11.5t-39.5 -7.5q-47 0 -78 20.5t-50.5 53.5t-27.5 73t-8 81l-2 643h-314v-651zM446 1231h199l225 299h-331zM786 0h314v1102h-314v-1102z " />
<glyph unicode="&#xfb;" horiz-adv-x="1247" d="M102 451q0 -86 14.5 -171t51.5 -153t102.5 -111t169.5 -43q53 0 99.5 11.5t69 21.5t24.5 12l-2 232v4v-4q-2 -4 -10.5 -11.5t-38.5 -7.5q-47 0 -79 20.5t-50.5 53.5t-26.5 73t-8 81l-2 643h-314v-651zM242 1219h233l103 170l100 -170h227l-180 307h-289zM786 0h314v1102 h-314v-1102z" />
<glyph unicode="&#xfc;" horiz-adv-x="1247" d="M102 451q0 -86 14.5 -171t51.5 -153t102.5 -111t169.5 -43q53 0 99.5 11.5t69 21.5t24.5 12l-2 232v4v-4q-2 -4 -10.5 -11.5t-38.5 -7.5q-47 0 -79 20.5t-50.5 53.5t-26.5 73t-8 81l-2 643h-314v-651zM244 1182h280v252h-280v-252zM690 1182l279 4v248h-279v-252zM786 0 h314v1102h-314v-1102z" />
<glyph unicode="&#xfd;" d="M88 633q0 -139 53.5 -261t144.5 -213t214 -144.5t262 -53.5q137 0 259 53.5t213 144.5t144.5 213t53.5 261q0 137 -53.5 260t-143.5 214t-213 144.5t-260 53.5q-139 0 -262 -53.5t-215 -144.5t-144.5 -214t-52.5 -260zM166 633q0 123 46 230.5t127 188.5t189.5 128 t231.5 47v2q123 0 230.5 -47t189.5 -128t129 -189.5t47 -231.5t-47 -230.5t-128 -188.5t-188.5 -128t-230.5 -47t-231.5 47t-189.5 127t-128 188.5t-47 231.5zM440 764q0 -66 20.5 -120t57.5 -94t89 -62.5t118 -22.5q123 0 203 94q-4 -33 -6 -73t-13.5 -76.5t-33 -62 t-62.5 -28.5v-153q96 8 153.5 54t88 114.5t40 151.5t9.5 167q0 78 -11.5 153t-43 136.5t-88 105.5t-144.5 62h-4l4 2q2 0 -4 0v-2v-156q70 -14 85 -58t15 -114q0 -68 -43 -113.5t-112 -45.5q-66 0 -105 45t-39 110q0 39 2 65.5t11.5 47t29 35t54.5 28.5v158 q-78 -2 -130.5 -28.5t-83 -73.5t-44 -109.5t-13.5 -136.5zM455 406q14 -66 31.5 -110t44 -72.5t69.5 -42t111 -17.5v151q-51 4 -63.5 27t-16.5 76z" />
<glyph unicode="&#xff;" horiz-adv-x="1120" d="M8 1098q14 -43 48 -129t74 -191.5t83 -221.5t78 -217t58.5 -177t23.5 -105q0 -90 -46 -117.5t-126 -27.5h-88v-248q37 0 73.5 -1t73.5 -1q80 0 147.5 11.5t121 41t91.5 82.5t56 137l-324 1164h-344zM156 1227h278v252h-278v-252zM602 1227h277v252h-277v-252zM614 604 l134 -475l321 969h-334z" />
<glyph unicode="&#x152;" horiz-adv-x="2121" d="M23 727q0 -160 22.5 -296t85 -236.5t172 -160t283.5 -67.5v297q-84 18 -129 64.5t-65.5 110t-25 138t-4.5 150.5q0 70 6.5 143.5t29 138t67.5 112t125 59.5l-2 2v284q-162 -8 -270.5 -67.5t-174 -157.5t-93 -229t-27.5 -285zM745 -31l27 7q27 8 66 22t83 31.5t78 40.5 v-72h318v1434h-318v-58q-45 18 -90 35.5t-81.5 30t-59.5 19.5l-23 7v-280l30 -12q30 -11 71 -32.5t84 -52t69 -69.5v-590q-31 -43 -74.5 -75.5t-83.5 -54t-68 -32.5l-28 -12v-287zM1513 -4h539v272h-539v-272zM1513 616h469v263h-469v-263zM1513 1167h519v263h-519v-263z " />
<glyph unicode="&#x153;" horiz-adv-x="2037" d="M43 545q0 -121 31.5 -224.5t95 -180.5t156 -122t215.5 -49v260q-63 12 -98 43t-52.5 75t-21.5 97.5t-4 112.5q0 57 3 110.5t20.5 95.5t52 71.5t98.5 44.5v251q-123 -4 -216.5 -51t-156 -126t-93 -184t-30.5 -224zM674 879q61 -10 96 -40t51.5 -73t20.5 -95.5t4 -107.5 q0 -61 -2 -115.5t-17.5 -97.5t-49.5 -74.5t-99 -50.5l-2 -254q96 8 172 46t145 104q76 -84 186.5 -118t221.5 -34q100 0 181 21.5t145.5 65.5t114.5 110.5t91 157.5l-321 16q-31 -57 -86.5 -85t-120.5 -28q-74 0 -123 29t-78.5 76t-42 107.5t-12.5 123.5q0 59 11 118.5 t40 107t75 76t118 28.5q41 0 79.5 -14.5t69.5 -39t50.5 -60.5t23.5 -79h-297q-10 -35 -13 -68.5t-3 -68.5q0 -57 14 -102h633q-4 135 -34 257t-95.5 216t-171 149.5t-256.5 55.5q-63 0 -113.5 -9.5t-95.5 -29t-89 -47t-94 -64.5q-43 33 -78.5 57.5t-72.5 42t-79 27.5t-97 14 v-251z" />
<glyph unicode="&#x178;" horiz-adv-x="1318" d="M-8 1434l479 -895v-539h326v532l-445 902h-360zM233 1561h267v254h-267v-254zM711 1561h266v256h-266v-256zM727 977l162 -326l393 783h-358z" />
<glyph unicode="&#x2c6;" horiz-adv-x="489" d="M-111 1219h232l104 170l103 -170h225l-180 307h-287z" />
<glyph unicode="&#x2dc;" horiz-adv-x="495" d="M-82 1253q0 -14 4 -30h146q-2 33 8 60.5t51 27.5q33 0 64.5 -14.5t63.5 -31t65.5 -30.5t70.5 -14q47 0 75 18t43 48t19 68t4 75v40v25q0 14 -2 29v-2h-137q-4 -29 -14 -55.5t-45 -26.5q-27 0 -56.5 13t-61.5 29.5t-64.5 30t-65.5 13.5q-53 0 -86 -21.5t-51.5 -56.5 t-24.5 -78t-6 -88v-29z" />
<glyph unicode="&#x2000;" horiz-adv-x="962" />
<glyph unicode="&#x2001;" horiz-adv-x="1925" />
<glyph unicode="&#x2002;" horiz-adv-x="962" />
<glyph unicode="&#x2003;" horiz-adv-x="1925" />
<glyph unicode="&#x2004;" horiz-adv-x="641" />
<glyph unicode="&#x2005;" horiz-adv-x="481" />
<glyph unicode="&#x2006;" horiz-adv-x="320" />
<glyph unicode="&#x2007;" horiz-adv-x="320" />
<glyph unicode="&#x2008;" horiz-adv-x="240" />
<glyph unicode="&#x2009;" horiz-adv-x="385" />
<glyph unicode="&#x200a;" horiz-adv-x="106" />
<glyph unicode="&#x2010;" horiz-adv-x="862" d="M111 526h596v242h-596v-242z" />
<glyph unicode="&#x2011;" horiz-adv-x="862" d="M111 526h596v242h-596v-242z" />
<glyph unicode="&#x2012;" horiz-adv-x="862" d="M111 526h596v242h-596v-242z" />
<glyph unicode="&#x2013;" horiz-adv-x="1222" d="M98 522h981v246h-981v-246z" />
<glyph unicode="&#x2014;" horiz-adv-x="1495" d="M49 489h1352v211h-1352v-211z" />
<glyph unicode="&#x2018;" horiz-adv-x="581" d="M109 805l303 -2v303h-150q2 37 14.5 74t35 69.5t52 56t66.5 35.5l-2 111q-104 -31 -165.5 -75t-95.5 -104.5t-45 -139t-11 -179.5q0 -39 -1 -75.5t-1 -73.5z" />
<glyph unicode="&#x2019;" horiz-adv-x="559" d="M102 903l2 -2v-113q63 16 121 47t99 75t65.5 101.5t24.5 129.5v297h-299v-305h155q-10 -74 -51 -140.5t-117 -89.5z" />
<glyph unicode="&#x201a;" horiz-adv-x="563" d="M96 -233h2v-111q137 49 205 110.5t93.5 139.5t24.5 177t1 222h-301l-4 -305h155q-14 -82 -56 -140.5t-120 -92.5z" />
<glyph unicode="&#x201c;" horiz-adv-x="972" d="M100 805h306v307h-158q4 45 16 78t32.5 58.5t48.5 46.5t65 44v111q-72 -23 -129.5 -53.5t-97.5 -74.5t-61.5 -104.5t-21.5 -140.5v-272zM506 807l309 -2v307h-160q8 84 52 139t120 88l-2 117q-102 -35 -164.5 -76t-96.5 -97t-46 -132t-12 -178v-166z" />
<glyph unicode="&#x201d;" horiz-adv-x="958" d="M92 786q82 33 142.5 66t99.5 78t57.5 108.5t18.5 157.5v240h-308v-308h160q0 -76 -51 -136t-119 -87v-2v-117zM504 791q98 25 160.5 66.5t96.5 101t46 135.5t12 170v172l-309 2v-308h156q2 -78 -46.5 -136t-113.5 -91h-2v-112z" />
<glyph unicode="&#x201e;" horiz-adv-x="962" d="M94 -223v-117q96 33 157.5 70t97.5 88t49.5 122t13.5 173q2 49 1 97t-1 95l-308 2v-307h160q-4 -37 -16 -73t-35 -66.5t-52.5 -53t-66.5 -30.5zM508 -223v-115q14 4 28.5 9t28.5 12q82 31 132.5 74.5t78 100t36.5 125t9 150.5q0 43 -1 86t-1 86l-307 2v-307h156 q-4 -78 -47 -134t-113 -89z" />
<glyph unicode="&#x2022;" horiz-adv-x="774" d="M100 717q0 -55 21.5 -103.5t58.5 -84t86 -56t105 -20.5q55 0 102 20.5t82 56t54.5 84t19.5 103.5q0 53 -20.5 101t-55.5 84t-82 57.5t-100 21.5t-102.5 -20.5t-86.5 -56.5t-59.5 -84t-22.5 -103z" />
<glyph unicode="&#x2026;" horiz-adv-x="1968" d="M180 0h211v215h-211v-215zM856 0h211v215h-211v-215zM1532 0h211v215h-211v-215z" />
<glyph unicode="&#x202f;" horiz-adv-x="385" />
<glyph unicode="&#x2039;" horiz-adv-x="694" d="M164 469l319 -250v178l-213 166l213 164v178l-319 -250v-186z" />
<glyph unicode="&#x203a;" horiz-adv-x="679" d="M158 219l319 250v186l-319 250v-178l213 -164l-213 -166v-178z" />
<glyph unicode="&#x205f;" horiz-adv-x="481" />
<glyph unicode="&#x2122;" horiz-adv-x="1658" d="M-8 1122l35 -2q-2 55 16 84t51 43.5t74 17.5t82 3l-2 -609q0 -18 -10.5 -29.5t-25.5 -15.5t-32.5 -5t-32.5 -1l3 -39h313v37q-14 0 -31.5 1t-32 6t-24.5 15.5t-10 30.5v609q37 0 76.5 -2t71.5 -14.5t52.5 -39t20.5 -77.5v-15l35 2l-7 189h-616zM678 1276q43 2 72.5 -5 t29.5 -63v-549q0 -18 -10 -29.5t-25.5 -15.5t-33 -5t-31.5 -1l2 -39h250v37q-14 0 -30.5 1t-32 6t-25.5 15.5t-10 30.5v510l280 -600h35l260 631v-541q0 -18 -10 -29.5t-25.5 -15.5t-33 -5t-31.5 -1l2 -39h311v37q-14 0 -30.5 1t-31 6t-24.5 15.5t-10 30.5v570q0 35 25.5 42 t52.5 7l16 -2v35h-219l-246 -559l-254 559h-223v-35z" />
<glyph unicode="&#xe000;" horiz-adv-x="1095" d="M0 0v1096h1096v-1096h-1096z" />
</font>
</defs>
</svg>
